/* XPM */
static char *_5100d97a5c740eef3460acf500246fdB9Z2XmoFSIC62ZYY[] = {
/* columns rows colors chars-per-pixel */
"64 64 172 2 ",
"   c #85FFA7",
".  c #85FAA5",
"X  c #7E6878",
"o  c #7D486E",
"O  c #7D4F70",
"+  c #7D4E70",
"@  c #7D4B6F",
"#  c #7D4D70",
"$  c #7D5071",
"%  c #7E5572",
"&  c #808D84",
"*  c #82AF8E",
"=  c #83CC97",
"-  c #84EAA0",
";  c #85FCA6",
":  c #7F7E7F",
">  c #7A075A",
",  c #7A0359",
"<  c #7A065A",
"1  c #7A055A",
"2  c #7A0A5B",
"3  c #7B0E5C",
"4  c #7B1960",
"5  c #7C2A65",
"6  c #7C396A",
"7  c #7E5271",
"8  c #809586",
"9  c #83DC9C",
"0  c #82B791",
"q  c #7B0C5C",
"w  c #7A0459",
"e  c #7B2263",
"r  c #7D406C",
"t  c #7D3C6B",
"y  c #7D416C",
"u  c #7C3869",
"i  c #7C3167",
"p  c #7C2C66",
"a  c #7B185F",
"s  c #7A0259",
"d  c #7A0158",
"f  c #7D3D6B",
"g  c #84DD9C",
"h  c #85F9A5",
"j  c #7B1C61",
"k  c #7A0B5B",
"l  c #7A085A",
"z  c #7B105D",
"x  c #7B0F5D",
"c  c #7B0D5C",
"v  c #7D496F",
"b  c #84E09D",
"n  c #85F8A5",
"m  c #7A0058",
"M  c #7B125E",
"N  c #7B2062",
"B  c #7C2F67",
"V  c #7F7A7E",
"C  c #82B891",
"Z  c #82BE93",
"A  c #82BF93",
"S  c #82BD93",
"D  c #82B690",
"F  c #82BC92",
"G  c #84E19E",
"H  c #808381",
"J  c #83CB97",
"K  c #84F3A3",
"L  c #85FBA6",
"P  c #83CE98",
"I  c #809686",
"U  c #7D5171",
"Y  c #7A095B",
"T  c #7B155F",
"R  c #7F7D7F",
"E  c #7C3468",
"W  c #85F6A4",
"Q  c #7B115D",
"!  c #809486",
"~  c #82B490",
"^  c #7F757C",
"/  c #7D436D",
"(  c #84E59F",
")  c #7B1A60",
"_  c #7C2363",
"`  c #84E9A0",
"'  c #85F5A4",
"]  c #7C2563",
"[  c #7C3568",
"{  c #82B28F",
"}  c #7D4A6F",
"|  c #809285",
" . c #83D99B",
".. c #808A83",
"X. c #808180",
"o. c gray50",
"O. c #7E6678",
"+. c #7D456D",
"@. c #7D426C",
"#. c #83D49A",
"$. c #7E6477",
"%. c #7C3067",
"&. c #7B175F",
"*. c #84F2A3",
"=. c #7C2664",
"-. c #7B1D61",
";. c #7F787D",
":. c #808080",
">. c #7D4C70",
",. c #809085",
"<. c #82B590",
"1. c #84DF9D",
"2. c #7C2463",
"3. c #7D476E",
"4. c #7F6E7A",
"5. c #81A08A",
"6. c #83C796",
"7. c #84F1A3",
"8. c #85FEA7",
"9. c #7C3267",
"0. c #7C2864",
"q. c #7E5C75",
"w. c #81AB8D",
"e. c #82B38F",
"r. c #7C2965",
"t. c #82BB92",
"y. c #7D3F6C",
"u. c #82BA92",
"i. c #7B1E61",
"p. c #808682",
"a. c #7B2162",
"s. c #809386",
"d. c #82C294",
"f. c #84EEA2",
"g. c #808882",
"h. c #7F737C",
"j. c #7E5A74",
"k. c #7C2B65",
"l. c #7D446D",
"z. c #7D3B6A",
"x. c #81A98C",
"c. c #7E5873",
"v. c #7F707B",
"b. c #7E6377",
"n. c #7E6176",
"m. c #7C2D66",
"M. c #7F797D",
"N. c #83D59A",
"B. c #81AC8D",
"V. c #7B1F62",
"C. c #85F4A4",
"Z. c #7E5F75",
"A. c #7B1B60",
"S. c #7B145E",
"D. c #84EFA2",
"F. c #81AD8E",
"G. c #83C996",
"H. c #7C2764",
"J. c #7C3769",
"K. c #7F6D7A",
"L. c #808280",
"P. c #808E84",
"I. c #819C88",
"U. c #84F0A2",
"Y. c #808581",
"T. c #819987",
"R. c #83D79B",
"E. c #85FDA6",
"W. c #7E5372",
"Q. c #81AE8E",
"!. c #84ECA1",
"~. c #83CD98",
/* pixels */
"                                                                                                                                ",
"                                                                                                                                ",
"                                                                                                                                ",
"                                                                                                                                ",
"                                                                                                                                ",
"                                                                                                                                ",
"                                                                                                                                ",
"                                                                                                                                ",
"                                                                                                                                ",
"                              . X o O + @ O + @ O # @ $ # @ O # @ % X & * = - ;                                                 ",
"                              : > , > < < > > 1 > > < < < 1 < < 1 1 1 1 2 3 4 5 6 7 8 9                                         ",
"                              0 q w e r t y r u i p a q < w < 1 w 1 , s s d d d d d w f g                                       ",
"                              h j d , q k q q l l < w > k 3 z 3 3 z x c q 2 > < w , k v b                                       ",
"                              n e m d k c x z M N B t V C Z A S S A S Z A Z S A Z D F G                                         ",
"                                H s d e S Z S J K L                                                                             ",
"                                  4 m 1 P                                                                                       ",
"                                  I d m U                                                                                       ",
"                                  G Y m T -                                                                                     ",
"                                  L 5 d w R                                                                                     ",
"                                    7 , s E W                                                                                   ",
"                                    R 1 s Q =                                                                                   ",
"                                    ! < s 1 8                                                                                   ",
"                                    ~ k , w ^                                                                                   ",
"                                    A Q w w /                                                                                   ",
"                                    ( ) w w _ `                                                                                 ",
"                                    ' ] 1 < Q A                                                                                 ",
"                                    ; [ 1 > 2 {                                                                                 ",
"                                      } 1 Y l | W  .{ ..X.o.H X.o.H X.o.H o.O.% +.@.@.@.+ #.                                    ",
"                                      $.< Y 1 %.p &.Y > > < > < < 1 w , s s d d d d d d s B *.                                  ",
"                                      X.> Y d s w > k a =.] -.z > , d d s s s , < > < > c ;.h                                   ",
"                                      :.< l m , >.,.<.1.:.2.c < < k T 5 3.4.5.6.7.h h L h 8.                                    ",
"                                      ,.l k s -.8.  0 9.Y w x 0.q.w.1.; 8.                                                      ",
"                                      e.k 2 < r.t./ Q < c y.<.h                                                                 ",
"                                      0 q < < q M < k ] 8 ;                                                                     ",
"                                      u.3 2 , d w i.p.K                                                                         ",
"                                      C 3 2 d m a.(                                                                             ",
"                                      D k l s s s.                                                                              ",
"                                      u.3 k < l D                                                                               ",
"                                      C 3 k 2 c C                                                                               ",
"                                      D k l Y 3 0                                                                               ",
"                                      u.x 2 < 3 d.                                                                              ",
"                                      u.c l w -.f.                                                                              ",
"                                      5.> Y 1 2.W                                                                               ",
"                                      g.> M w e '                                                                               ",
"                                      h.< 4 < =.'                                                                               ",
"                                      j.< e < =.'                                                                               ",
"                                      v > 0.w k.h                                                                               ",
"                                    K =.< k.< l.                                                                                ",
"                                    A x q 6 > %                                                                                 ",
"                                    X.> N z.< j.                f.x.h.c.>.# $ >.# O >.>.U q.v.b.n.F                             ",
"                                    v 1 t m.> M.      L N.B.:.+ _ q 1 > 1 1 > < 1 < 1 w s s d d s V. .                          ",
"                                  C.k.< Z.&.< Z.p.4.o p Q > 1 w , > Q a.p =.A.S.z k Y 1 s d m d < o D.                          ",
"                                  #.T > r.s s w , d s m m d d , w 1 > > < < 1 < > < > c V.v v.F.G.n                             ",
"                                  { q c Q m d s m s s , Y 2 q a _ H.5 =.H.J.7 K.L.P.I.C U.                                      ",
"                                  : > < k , 1 q a.% Y.T.t.Z F R.n   E.; n E.                                                    ",
"                                  # s s q 2.W.Q.*.                                                                              ",
"                                  @ , q | !.                                                                                    ",
"                                  ~.$ w.                                                                                        ",
"                                                                                                                                ",
"                                                                                                                                ",
"                                                                                                                                ",
"                                                                                                                                ",
"                                                                                                                                ",
"                                                                                                                                "
};
