/* XPM */
static char *f272ad155ae34882c514f1554499f2b7vNBjH6yKzwF1QmV0[] = {
/* columns rows colors chars-per-pixel */
"64 64 202 2 ",
"   c #7D4F70",
".  c #7B175F",
"X  c #82C294",
"o  c #85FFA7",
"O  c #84F2A3",
"+  c #808882",
"@  c #7B165F",
"#  c #7A095B",
"$  c #7B155F",
"%  c #7B185F",
"&  c #7B105D",
"*  c #808280",
"=  c #7D486E",
"-  c #7B135E",
";  c #82BE93",
":  c #81A68B",
">  c #7E6477",
",  c #83C896",
"<  c #83CF98",
"1  c #809386",
"2  c #7B1D61",
"3  c #7B1A60",
"4  c #7B145E",
"5  c #82BD93",
"6  c #7F7B7E",
"7  c #7F6C79",
"8  c #85FDA6",
"9  c #7F6E7A",
"0  c #7B0C5C",
"q  c #808381",
"w  c #7A0A5B",
"e  c #7C2D66",
"r  c #81A08A",
"t  c #85F7A5",
"y  c #808E84",
"u  c #7B0E5C",
"i  c #7C3769",
"p  c #7B0F5D",
"a  c #82C394",
"s  c #81AC8D",
"d  c #7A0158",
"f  c #7A0359",
"g  c #7B0D5C",
"h  c #7C2965",
"j  c #7D3A6A",
"k  c #7C2764",
"l  c #7B1B60",
"z  c #84E8A0",
"x  c #84DD9C",
"c  c #7C2463",
"v  c #808481",
"b  c #7C2864",
"n  c #7C3067",
"m  c #83CA97",
"M  c #809085",
"N  c #7B125E",
"B  c #82B08F",
"V  c #7D4B6F",
"C  c #7B115D",
"Z  c #82B28F",
"A  c #7D456D",
"S  c #85F6A4",
"D  c #7C3869",
"F  c #82B891",
"G  c #808982",
"H  c #82AF8E",
"J  c #84F0A2",
"K  c #7C3669",
"L  c #81AB8D",
"P  c #7E5974",
"I  c #7D436D",
"U  c #85FAA5",
"Y  c #7E6878",
"T  c #7D4E70",
"R  c #7D4D70",
"E  c #7D5071",
"W  c #7E5572",
"Q  c #808D84",
"!  c #83CC97",
"~  c #84EAA0",
"^  c #85FCA6",
"/  c #84EFA2",
"(  c #809285",
")  c #7B2263",
"_  c #84EEA2",
"`  c #83D49A",
"'  c #85F9A5",
"]  c #7F7E7F",
"[  c #7A075A",
"{  c #7A065A",
"}  c #7A055A",
"|  c #7B1960",
" . c #7C2A65",
".. c #7C396A",
"X. c #7E5271",
"o. c #809586",
"O. c #83DC9C",
"+. c #7F6979",
"@. c #82B791",
"#. c #7A0459",
"$. c #7D406C",
"%. c #7D3C6B",
"&. c #7D416C",
"*. c #7C3167",
"=. c #7C2C66",
"-. c #7A0259",
";. c #7D3D6B",
":. c #7B1C61",
">. c #7A0B5B",
",. c #7A085A",
"<. c #7D496F",
"1. c #84E09D",
"2. c #85F8A5",
"3. c #7A0058",
"4. c #7B2062",
"5. c #7C2F67",
"6. c #7F7A7E",
"7. c #82BF93",
"8. c #82B690",
"9. c #82BC92",
"0. c #84E19E",
"q. c #83CB97",
"w. c #84F3A3",
"e. c #85FBA6",
"r. c #83CE98",
"t. c #809686",
"y. c #7D5171",
"u. c #7F7D7F",
"i. c #7C3468",
"p. c #809486",
"a. c #82B490",
"s. c #7F757C",
"d. c #84E59F",
"f. c #7C2363",
"g. c #84E9A0",
"h. c #85F5A4",
"j. c #7C2563",
"k. c #7C3568",
"l. c #7D4A6F",
"z. c #83D99B",
"x. c #808A83",
"c. c #808180",
"v. c gray50",
"b. c #7E6678",
"n. c #7D426C",
"m. c #7C2664",
"M. c #7F787D",
"N. c #808080",
"B. c #7D4C70",
"V. c #82B590",
"C. c #84DF9D",
"Z. c #7D476E",
"A. c #83C796",
"S. c #84F1A3",
"D. c #85FEA7",
"F. c #7C3267",
"G. c #7E5C75",
"H. c #82B38F",
"J. c #82BB92",
"K. c #7D3F6C",
"L. c #82BA92",
"P. c #7B1E61",
"I. c #808682",
"U. c #7B2162",
"Y. c #7F737C",
"T. c #7E5A74",
"R. c #7C2B65",
"E. c #7D446D",
"W. c #7D3B6A",
"Q. c #81A98C",
"!. c #7E5873",
"~. c #7F707B",
"^. c #7E6377",
"/. c #7E6176",
"(. c #7F797D",
"). c #83D59A",
"_. c #7B1F62",
"`. c #85F4A4",
"'. c #7E5F75",
"]. c #81AD8E",
"[. c #83C996",
"{. c #7F6D7A",
"}. c #819C88",
"|. c #808581",
" X c #819987",
".X c #83D79B",
"XX c #7E5472",
"oX c #819887",
"OX c #7E5372",
"+X c #81AE8E",
"@X c #7E5773",
"#X c #7D3E6B",
"$X c #7E5B74",
"%X c #84ECA1",
"&X c #84E29E",
"*X c #83CD98",
"=X c #808782",
"-X c #819787",
";X c #81A38A",
":X c #81A28A",
">X c #82B991",
",X c #84E7A0",
/* pixels */
"  . X o o o o o o o o o o o o o o o o o o o o o o o o o o o o o o o o o o o o o o o o o o o o o o o o o o o o O + @ # $ % & % * ",
"= - ; o o o o o o o o o o o o o o o o o o o o o o o o o o o o o o o o o o o o o o o o o o o o o o o o o o o o : & @ > , < 1 2 3 ",
"= 4 5 o o o o o o o o o o o o o o o o o o o o o o o o o o o o o o o o o o o o o o o o o o o o o o o o o o o o 6 # 7 8 o o o 9 0 ",
"= - 5 o o o o o o o o o o o o o o o o o o o o o o o o o o o o o o o o o o o o o o o o o o o o o o o o o o o o q w e r t o o y u ",
"i p a o o o o o o o o o o o o o o o o o o o o o o o o o o o o o o o o o o o o o o o o o o o o o o o o o o o o s w d f g h j % p ",
"k l z o o o o o o o o o o o o o o o o o o o o o o o o o o o o o o o o o o o o o o o o o o o o o o o o o o o o x @ w # f f 0 c v ",
"b h o o o o o o o o o o o o o o o o o o o o o o o o o o o o o o o o o o o o o o o o o o o o o o o o o o o o o 8 n % m M 3 N B o ",
"h h o o o o o o o o o o o o o o o o o o o o o o o o o o o o o o o o o o o o o o o o o o o o o o o o o o o o o o V C Z o M p A S ",
"k C k c D F o o o o o o o o o o o o o o o o o o o o o o o o o o o o o o o o o o o o o o o o o o o o o o o o o o G 3 H o J K 4 L ",
"P - 4 b I ; o o o o o o o o o U Y =   T V   T V   R V E R V   R V W Y Q H ! ~ ^ o o o o o o o o o o o o o o o o / , / o o ( u ) ",
"_ ` x ' o o o o o o o o o o o ] [ f [ { { [ [ } [ [ { { { } { { } } } } w u |  ...X.o.O.o o o o o o o o o o o o o o o o o S +.p ",
"o o o o o o o o o o o o o o o @.0 #.) $.%.&.$.D *.=.% 0 { #.{ } #.} f -.-.d d d d d #.;.x o o o o o o o o o o o o o o o o o t + ",
"o o o o o o o o o o o o o o o ' :.d f 0 >.0 0 ,.,.{ #.[ >.u & u u & p g 0 w [ { #.f >.<.1.o o o o o o o o o o o o o o o o o o o ",
"o o o o o o o o o o o o o o o 2.) 3.d >.g p & N 4.5.%.6.F ; 7.5 5 7.5 ; 7.; 5 7.; 8.9.0.o o o o o o o o o o o o o o o o o o o o ",
"o o o o o o o o o o o o o o o o q -.d ) 5 ; 5 q.w.e.o o o o o o o o o o o o o o o o o o o o o o o o o o o o o o o o o o o o o o ",
"o o o o o o o o o o o o o o o o o | 3.} r.o o o o o o o o o o o o o o o o o o o o o o o o o o o o o o o o o o o o o o o o o o o ",
"o o o o o o o o o o o o o o o o o t.d 3.y.o o o o o o o o o o o o o o o o o o o o o o o o o o o o o o o o o o o o o o o o o o o ",
"o o o o o o o o o o o o o o o o o 0.# 3.$ ~ o o o o o o o o o o o o o o o o o o o o o o o o o o o o o o o o o o o o o o o o o o ",
"o o o o o o o o o o o o o o o o o e. .d #.u.o o o o o o o o o o o o o o o o o o o o o o o o o o o o o o o o o o o o o o o o o o ",
"o o o o o o o o o o o o o o o o o o X.f -.i.S o o o o o o o o o o o o o o o o o o o o o o o o o o o o o o o o o o o o o o o o o ",
"o o o o o o o o o o o o o o o o o o u.} -.C ! o o o o o o o o o o o o o o o o o o o o o o o o o o o o o o o o o o o o o o o o o ",
"o o o o o o o o o o o o o o o o o o p.{ -.} o.o o o o o o o o o o o o o o o o o o o o o o o o o o o o o o o o o o o o o o o o o ",
"o o o o o o o o o o o o o o o o o o a.>.f #.s.o o o o o o o o o o o o o o o o o o o o o o o o o o o o o o o o o o o o o o o o o ",
"o o o o o o o o o o o o o o o o o o 7.C #.#.I o o o o o o o o o o o o o o o o o o o o o o o o o o o o o o o o o o o o o o o o o ",
"o o o o o o o o o o o o o o o o o o d.3 #.#.f.g.o o o o o o o o o o o o o o o o o o o o o o o o o o o o o o o o o o o o o o o o ",
"o o o o o o o o o o o o o o o o o o h.j.} { C 7.o o o o o o o o o o o o o o o o o o o o o o o o o o o o o o o o o o o o o o o o ",
"o o o o o o o o o o o o o o o o o o ^ k.} [ w Z o o o o o o o o o o o o o o o o o o o o o o o o o o o o o o o o o o o o o o o o ",
"o o o o o o o o o o o o o o o o o o o l.} # ,.( S z.Z x.c.v.q c.v.q c.v.q v.b.W A n.n.n.T ` o o o o o o o o o o o o o o o o o o ",
"o o o o o o o o o o o o o o o o o o o > { # } n =.. # [ [ { [ { { } #.f -.-.d d d d d d -.5.O o o o o o o o o o o o o o o o o o ",
"o o o o o o o o o o o o o o o o o o o c.[ # d -.#.[ >.% m.j.2 & [ f d d -.-.-.f { [ { [ g M.' o o o o o o o o o o o o o o o o o ",
"o o o o o o o o o o o o o o o o o o o N.{ ,.3.f B.M V.C.N.c g { { >.$  .Z.9 r A.S.' ' e.' D.o o o o o o o o o o o o o o o o o o ",
"o o o o o o o o o o o o o o o o o o o M ,.>.-.2 D.o @.F.# #.p b G.L C.^ D.o o o o o o o o o o o o o o o o o o o o o o o o o o o ",
"o o o o o o o o o o o o o o o o o o o H.>.w { h J.I C { g K.V.' o o o o o o o o o o o o o o o o o o o o o o o o o o o o o o o o ",
"o o o o o o o o o o o o o o o o o o o @.0 { { 0 N { >.j.o.^ o o o o o o o o o o o o o o o o o o o o o o o o o o o o o o o o o o ",
"o o o o o o o o o o o o o o o o o o o L.u w f d #.P.I.w.o o o o o o o o o o o o o o o o o o o o o o o o o o o o o o o o o o o o ",
"o o o o o o o o o o o o o o o o o o o F u w d 3.U.d.o o o o o o o o o o o o o o o o o o o o o o o o o o o o o o o o o o o o o o ",
"o o o o o o o o o o o o o o o o o o o 8.>.,.-.-.1 o o o o o o o o o o o o o o o o o o o o o o o o o o o o o o o o o o o o o o o ",
"o o o o o o o o o o o o o o o o o o o L.u >.{ ,.8.o o o o o o o o o o o o o o o o o o o o o o o o o o o o o o o o o o o o o o o ",
"o o o o o o o o o o o o o o o o o o o F u >.w g F o o o o o o o o o o o o o o o o o o o o o o o o o o o o o o o o o o o o o o o ",
"o o o o o o o o o o o o o o o o o o o 8.>.,.# u @.o o o o o o o o o o o o o o o o o o o o o o o o o o o o o o o o o o o o o o o ",
"o o o o o o o o o o o o o o o o o o o L.p w { u X o o o o o o o o o o o o o o o o o o o o o o o o o o o o o o o o o o o o o o o ",
"o o o o o o o o o o o o o o o o o o o L.g ,.#.2 _ o o o o o o o o o o o o o o o o o o o o o o o o o o o o o o o o o o o o o o o ",
"o o o o o o o o o o o o o o o o o o o r [ # } c S o o o o o o o o o o o o o o o o o o o o o o o o o o o o o o o o o o o o o o o ",
"o o o o o o o o o o o o o o o o o o o + [ N #.) h.o o o o o o o o o o o o o o o o o o o o o o o o o o o o o o o o o o o o o o o ",
"o o o o o o o o o o o o o o o o o o o Y.{ | { m.h.o o o o o o o o o o o o o o o o o o o o o o o o o o o o o o o o o o o o o o o ",
"o o o o o o o o o o o o o o o o o o o T.{ ) { m.h.o o o o o o o o o o o o o o o o o o o o o o o o o o o o o o o o o o o o o o o ",
"o o o o o o o o o o o o o o o o o o o <.[ b #.R.' o o o o o o o o o o o o o o o o o o o o o o o o o o o o o o o o o o o o o o o ",
"o o o o o o o o o o o o o o o o o o w.m.{ R.{ E.o o o o o o o o o o o o o o o o o o o o o o o o o o o o o o o o o o o o o o o o ",
"o o o o o o o o o o o o o o o o o o 7.p 0 ..[ W o o o o o o o o o o o o o o o o o o o o o o o o o o o o o o o o o o o o o o o o ",
"o o o o o o o o o o o o o o o o o o c.[ 4.W.{ T.o o o o o o o o _ Q.Y.!.B.R E B.R   B.B.y.G.~.^./.9.o o o o o o o o o o o o o o ",
"o o o o o o o o o o o o o o o o o o <.} %.e [ (.o o o e.).s N.T f.0 } [ } } [ { } { } #.-.-.d d -._.z.o o o o o o o o o o o o o ",
"o o o o o o o o o o o o o o o o o `.R.{ '.. { '.I.9 = =.C [ } #.f [ C U.=.m.l 4 & >.# } -.d 3.d { = / o o o o o o o o o o o o o ",
"o o o o o o o o o o o o o o o o o ` $ [ h -.-.#.f d -.3.3.d d f #.} [ [ { { } { [ { [ g _.<.~.].[.2.o o o o o o o o o o o o o o ",
"o o o o o o o o o o o o o o o o o Z 0 g C 3.d -.3.-.-.f # w 0 % f.k  .m.k i X.{.* y }.F J o o o o o o o o o o o o o `., Z V.z.8 ",
"o o o o o o o o o o o o o o o o o ] [ { >.f } 0 U.W |. XJ.; 9..X2.o 8 ^ 2.8 o o o o o o o o o o o o o o o o o o .XXXm.$ - - 3 }.",
"oXX o o o o o o o o o o o o o o o R -.-.0 c OX+XO o o o o o o o o o o o o o o o o o o o o o o o o o o o o o o o @X# 3 #XZ.2 # $X",
"4.G.o o o o o o o o o o o o o o o V f 0 ( %Xo o o o o o o o o o o o o o o o o o o o o o o o o o o o o o o o o &X4.u ) 5.| w c Z ",
"$ l.o o o o o o o o o o o o o o o *XE L o o o o o o o o o o o o o o o o o o o o o o o o o o o o o o o o o o o v 0 N f { | b.x o ",
"$ l.o o o o o o o o o o o o o o o o o o o o o o o o o o o o o o o o o o o o o o o o o o o o o o o o o o o o o   N =XI & $ p.^ o ",
"$ = o o o o o o o o o o o o o o o o o o o o o o o o o o o o o o o o o o o o o o o o o o o o o o o o o o o o o = 4 9.' -X3 @ o.^ ",
"@ <.o o o o o o o o o o o o o o o o o o o o o o o o o o o o o o o o o o o o o o o o o o o o o o o o o o o o o P u y o 8 ;X3 | :X",
"& F.x o o o o o o o o o o o o o o o o o o o o o o o o o o o o o o o o o o o o o o o o o o o o o o o o o o o o >Xi M o o 8 }.@ :.",
"-.d #.,.V o o o o o o o o o o o o o o o o o o o o o o o o o o o o o o o o o o o o o o o o o o o o o o o o o o ,XY : o o o D.M - ",
"e u w 0 @Xo o o o o o o o o o o o o o o o o o o o o o o o o o o o o o o o o o o o o o o o o o o o o o o o o o `.8.` o o o o U ] "
};
