/* XPM */
static char *_9fa08efe7074e9197b2c4888c7be995ZBlABVIOEfNWLATN[] = {
/* columns rows colors chars-per-pixel */
"64 64 186 2 ",
"   c #FF9595",
".  c #AB8787",
"X  c #B48888",
"o  c #F69393",
"O  c #AE8787",
"+  c #0F6D6D",
"@  c #0B6C6C",
"#  c #487676",
"$  c #938383",
"%  c #F49393",
"&  c #888181",
"*  c #B68989",
"=  c #CA8C8C",
"-  c #E29090",
";  c #838080",
":  c #046B6B",
">  c #016A6A",
",  c #076B6B",
"<  c #0E6C6C",
"1  c #767E7E",
"2  c #8E8282",
"3  c #086B6B",
"4  c #106D6D",
"5  c #D68E8E",
"6  c #136D6D",
"7  c #307272",
"8  c #EE9292",
"9  c #828080",
"0  c #056B6B",
"q  c #026A6A",
"w  c #036B6B",
"e  c #547878",
"r  c #7C7F7F",
"t  c #3F7575",
"y  c #FA9494",
"u  c #587979",
"i  c #9F8585",
"p  c #848080",
"a  c #9E8585",
"s  c #918282",
"d  c #006A6A",
"f  c #A98686",
"g  c #7D7F7F",
"h  c #267070",
"j  c #E69191",
"k  c #126D6D",
"l  c #D08D8D",
"z  c #6A7C7C",
"x  c #577979",
"c  c #3A7474",
"v  c #F59393",
"b  c #347373",
"n  c #FB9494",
"m  c #557878",
"M  c #1D6F6F",
"N  c #0A6C6C",
"B  c #096C6C",
"V  c #5F7A7A",
"C  c #FE9595",
"Z  c #627B7B",
"A  c #517878",
"S  c #196E6E",
"D  c #CF8D8D",
"F  c #377373",
"G  c #9C8484",
"H  c #567979",
"J  c #0C6C6C",
"K  c #727D7D",
"L  c #227070",
"P  c #066B6B",
"I  c #1A6E6E",
"U  c #156E6E",
"Y  c #D88E8E",
"T  c #1C6F6F",
"R  c #176E6E",
"E  c #757E7E",
"W  c #D18D8D",
"Q  c #4E7777",
"!  c #527878",
"~  c #327272",
"^  c #5D7A7A",
"/  c #407575",
"(  c #B08888",
")  c #437575",
"_  c #186E6E",
"`  c #B18888",
"'  c #166E6E",
"]  c #5A7979",
"[  c #F39393",
"{  c #4F7777",
"}  c #257070",
"|  c #7A7F7F",
" . c #637B7B",
".. c #D48E8E",
"X. c #787E7E",
"o. c #477676",
"O. c #357373",
"+. c #247070",
"@. c #D78E8E",
"#. c #457676",
"$. c #237070",
"%. c #447575",
"&. c #A48686",
"*. c #8C8282",
"=. c #A68686",
"-. c #E49090",
";. c #FC9494",
":. c #337373",
">. c #206F6F",
",. c #EC9292",
"<. c #2A7171",
"1. c #297171",
"2. c #F79494",
"3. c #747E7E",
"4. c #116D6D",
"5. c #9A8484",
"6. c #F29393",
"7. c #F99494",
"8. c #3D7474",
"9. c #DD8F8F",
"0. c #F89494",
"q. c #B88989",
"w. c #ED9292",
"e. c #C58B8B",
"r. c #E19090",
"t. c #AD8787",
"y. c #A78686",
"u. c #998484",
"i. c #146D6D",
"p. c #0D6C6C",
"a. c #AA8787",
"s. c #948383",
"d. c #2B7171",
"f. c #467676",
"g. c #6C7C7C",
"h. c #397474",
"j. c #B78989",
"k. c #4D7777",
"l. c #5C7A7A",
"z. c #988484",
"x. c #657B7B",
"c. c #C88C8C",
"v. c #B38888",
"b. c #537878",
"n. c #7E7F7F",
"m. c #9B8484",
"M. c #217070",
"N. c #808080",
"B. c #DC8F8F",
"V. c #1B6F6F",
"C. c #858080",
"Z. c #818080",
"A. c #7B7F7F",
"S. c #AC8787",
"D. c #BC8A8A",
"F. c #FD9595",
"G. c #C48B8B",
"H. c #1F6F6F",
"J. c #367373",
"K. c #F19393",
"L. c #A28585",
"P. c #868181",
"I. c #E89191",
"U. c #C78C8C",
"Y. c #6E7D7D",
"T. c #A18585",
"R. c #2E7272",
"E. c #E79191",
"W. c gray50",
"Q. c #F09292",
"!. c #717D7D",
"~. c #CD8D8D",
"^. c #878181",
"/. c #E09090",
"(. c #5E7A7A",
"). c #CE8D8D",
"_. c #DB8F8F",
"`. c #2F7272",
"'. c #928383",
"]. c #497676",
"[. c #6D7C7C",
"{. c #647B7B",
"}. c #908282",
"|. c #777E7E",
" X c #2D7272",
".X c #277171",
/* pixels */
"                                                                                                                                ",
"                                                                                                                                ",
"                                                                                                                                ",
"                                                                                                                                ",
"                                                                                                                                ",
"                                                                                                                                ",
"                                                                                                                                ",
"                                                                                . X o                                           ",
"                                                                              O + @ # $ %                                       ",
"                    & *       = -                                             ; : > , < 1                                       ",
"                  2 3 4 5   . 6 7 8                                           9 0 q w w e                                       ",
"                  r q > t y u > w i                                           p : q q , a                                       ",
"                  s q d , f g > q h j                                         & w q > k l                                       ",
"                  z > d d 4 x : : 3 c v                                       9 q > w b n                                       ",
"                  m w > > d 0 q M N B V C                                     u > > w Z                                         ",
"                  A 0 w q q > > S e 3 6 D                                     F > d , G                                         ",
"                  H , J 0 , q > : K L P c o                                 n I > > U Y                                         ",
"                  e , T 0 4 w > q R E N @ ;                                 W @ d > Q                                           ",
"                  ! P ~ B U : > : , ^ / 3 T -                               O : d > (                                           ",
"                  H 3 ) 4 3 0 d : w _ ` ' P ] C                             s q > P [                                           ",
"                  e , { } : w P 0 q 0 |  .3 _ ..                            X.q > k C                                           ",
"                  ! P ! o.w q O.L q > +.@.I P #.n                           x > d $.                                            ",
"                  H 3 H %.> q 9 &.@ q P *.r N 4 =.                          b d d O.                                            ",
"                  e , { _ > 3 -.;.:.> > >.,.<.0 1.%                       v M d d {                                             ",
"                  ! P c 3 d _ 2.  G N q : 3.f 4.N ;                       @.N > d 5.                                            ",
"                  H 3 U w q _ 6.  7.8.: > k 9.%.P <.0.                    q.: d 0 w.                                            ",
"                  e P 0 3 , k e.    r.M d > o.t.< < y.                    u.q > i.C                                             ",
"                  { q q } p.p.*       a.3 > P s.d.0 f.C                   g.d > h.                                              ",
"                  ~ d P g J @ j.      n k.w d U 1 3 I Y                   o.> d l.                                              ",
"                0.k > 4 j.+ + q.        8 +.> > H 6 3 z.                  c d d x.                                              ",
"                c.3 d T v.p.< j.          .., > 0 +.P b.                  $.d d n.                                              ",
"                m.0 d M.( J @ j.            N.w d 3 3 I B.                V.d > C.                                              ",
"                Z.q > $.v.+ + *               #.> d 0 3 A.                _ d > ;                                               ",
"                C.w > M.S.@ 4.D.              v i.> q : c F.            7.4.d > C.                                              ",
"                C.w q h z , >.j                 - 3 d > B G.            ,.@ d > C.                                              ",
"                N.w > H.<.P k.                    s q d > J.            K.+ d > ;                                               ",
"                C.: > I @ B L.                      ) > > w S.          F._ d d ;                                               ",
"                P.: q 4 P >.I.                      v M d d + D           } > d g                                               ",
"                N.w > P : H                           U.: d > 7 0.      n V.d > Y.                                              ",
"                C.w > : N T.                            l.> d w Q       % I > > R.C                                             ",
"                P.: > q 4.=                             E.4.> d : W.    v I d > k ..                                            ",
"                m.w d > $.Q.                              !.q d > N ~.  v T d d P ^.                                            ",
"                j.: d q / F.                              /.S w > > 6 l o I > > : u                                             ",
"                D.P d > (.                                  ] P w d > _ I.V.d w : 8.F.                                          ",
"                ).P d > n.                                  _.M 0 P d > `.T d w : } o                                           ",
"                K.R d q ^.                                    '.+ 3 P d q @ > q , _ /.                                          ",
"                C F > w 9                                     n u 3 , w d > > > P N L.                                          ",
"                  ].q w P.                                      K.#.3 0 w d > > q : [.                                          ",
"                  {.q w P.                                        C  .J 0 q d > > 0 }.                                          ",
"                  |.q q Z.                                            s +.3 : , > 4.-.                                          ",
"                  A.> > 9                                               K.Z + 0 d q g.                                          ",
"                  P.q > X.                                                  * # U S T.                                          ",
"                  D.> > k.                                                      w.5 n                                           ",
"                  v B d  X                                                                                                      ",
"                    R > T                                                                                                       ",
"                    .X> k 7.                                                                                                    ",
"                    T.6 e ;.                                                                                                    ",
"                      @.Q.                                                                                                      ",
"                                                                                                                                ",
"                                                                                                                                ",
"                                                                                                                                ",
"                                                                                                                                ",
"                                                                                                                                ",
"                                                                                                                                "
};
