/* XPM */
static char *_9e32905b7fc4795be0f9fe32daf402buqNwxJTXJS5zc4lm[] = {
/* columns rows colors chars-per-pixel */
"64 64 211 2 ",
"   c #4F7777",
".  c #176E6E",
"X  c #C28B8B",
"o  c #FF9595",
"O  c #F29393",
"+  c #888181",
"@  c #166E6E",
"#  c #096C6C",
"$  c #156E6E",
"%  c #186E6E",
"&  c #106D6D",
"*  c #828080",
"=  c #487676",
"-  c #136D6D",
";  c #BE8A8A",
":  c #A68686",
">  c #647B7B",
",  c #C88C8C",
"<  c #CF8D8D",
"1  c #938383",
"2  c #1D6F6F",
"3  c #1A6E6E",
"4  c #146D6D",
"5  c #BD8A8A",
"6  c #7B7F7F",
"7  c #6C7C7C",
"8  c #FD9595",
"9  c #6E7D7D",
"0  c #0C6C6C",
"q  c #838080",
"w  c #0A6C6C",
"e  c #2D7272",
"r  c #A08585",
"t  c #F79494",
"y  c #8E8282",
"u  c #0E6C6C",
"i  c #377373",
"p  c #0F6D6D",
"a  c #C38B8B",
"s  c #AC8787",
"d  c #016A6A",
"f  c #036B6B",
"g  c #0D6C6C",
"h  c #297171",
"j  c #3A7474",
"k  c #277171",
"l  c #1B6F6F",
"z  c #E89191",
"x  c #DD8F8F",
"c  c #247070",
"v  c #848080",
"b  c #287171",
"n  c #307272",
"m  c #CA8C8C",
"M  c #908282",
"N  c #126D6D",
"B  c #B08888",
"V  c #AB8787",
"C  c #B48888",
"Z  c #F69393",
"A  c #4B7777",
"S  c #116D6D",
"D  c #B28888",
"F  c #457676",
"G  c #387373",
"H  c #B88989",
"J  c #AE8787",
"K  c #0B6C6C",
"L  c #F49393",
"P  c #898181",
"I  c #AF8888",
"U  c #F09292",
"Y  c #367373",
"T  c #597979",
"R  c #437575",
"E  c #B68989",
"W  c #E29090",
"Q  c #046B6B",
"!  c #076B6B",
"~  c #767E7E",
"^  c #EF9292",
"/  c #928383",
"(  c #227070",
")  c #EE9292",
"_  c #D48E8E",
"`  c #F99494",
"'  c #086B6B",
"]  c #D68E8E",
"[  c #056B6B",
"{  c #026A6A",
"}  c #547878",
"|  c #697C7C",
" . c #7C7F7F",
".. c #3F7575",
"X. c #FA9494",
"o. c #587979",
"O. c #9F8585",
"+. c #9E8585",
"@. c #918282",
"#. c #006A6A",
"$. c #A98686",
"%. c #7D7F7F",
"&. c #267070",
"*. c #E69191",
"=. c #D08D8D",
"-. c #6A7C7C",
";. c #577979",
":. c #F59393",
">. c #347373",
",. c #FB9494",
"<. c #557878",
"1. c #5F7A7A",
"2. c #FE9595",
"3. c #627B7B",
"4. c #517878",
"5. c #196E6E",
"6. c #9C8484",
"7. c #567979",
"8. c #727D7D",
"9. c #066B6B",
"0. c #D88E8E",
"q. c #1C6F6F",
"w. c #757E7E",
"e. c #D18D8D",
"r. c #4E7777",
"t. c #527878",
"y. c #327272",
"u. c #5D7A7A",
"i. c #407575",
"p. c #B18888",
"a. c #5A7979",
"s. c #F39393",
"d. c #257070",
"f. c #7A7F7F",
"g. c #637B7B",
"h. c #787E7E",
"j. c #477676",
"k. c #357373",
"l. c #D78E8E",
"z. c #237070",
"x. c #447575",
"c. c #A48686",
"v. c #8C8282",
"b. c #E49090",
"n. c #FC9494",
"m. c #337373",
"M. c #206F6F",
"N. c #EC9292",
"B. c #2A7171",
"V. c #747E7E",
"C. c #9A8484",
"Z. c #3D7474",
"A. c #F89494",
"S. c #ED9292",
"D. c #C58B8B",
"F. c #E19090",
"G. c #AD8787",
"H. c #A78686",
"J. c #998484",
"K. c #AA8787",
"L. c #948383",
"P. c #2B7171",
"I. c #467676",
"U. c #397474",
"Y. c #B78989",
"T. c #4D7777",
"R. c #5C7A7A",
"E. c #988484",
"W. c #657B7B",
"Q. c #B38888",
"!. c #537878",
"~. c #7E7F7F",
"^. c #9B8484",
"/. c #217070",
"(. c #808080",
"). c #DC8F8F",
"_. c #858080",
"`. c #818080",
"'. c #BC8A8A",
"]. c #C48B8B",
"[. c #1F6F6F",
"{. c #F19393",
"}. c #A28585",
"|. c #868181",
" X c #C78C8C",
".X c #A18585",
"XX c #2E7272",
"oX c #E79191",
"OX c gray50",
"+X c #717D7D",
"@X c #CD8D8D",
"#X c #878181",
"$X c #E09090",
"%X c #5E7A7A",
"&X c #CE8D8D",
"*X c #DB8F8F",
"=X c #2F7272",
"-X c #497676",
";X c #6D7C7C",
":X c #777E7E",
">X c #B58989",
",X c #D98F8F",
"<X c #3E7474",
"1X c #5B7979",
"2X c #4A7676",
"3X c #667B7B",
"4X c #978383",
"5X c #958383",
"6X c #A38585",
"7X c #B98989",
"8X c #687C7C",
/* pixels */
"  . X o o o o o o o o o o o o o o o o o o o o o o o o o o o o o o o o o o o o o o o o o o o o o o o o o o o o O + @ # $ % & % * ",
"= - ; o o o o o o o o o o o o o o o o o o o o o o o o o o o o o o o o o o o o o o o o o o o o o o o o o o o o : & @ > , < 1 2 3 ",
"= 4 5 o o o o o o o o o o o o o o o o o o o o o o o o o o o o o o o o o o o o o o o o o o o o o o o o o o o o 6 # 7 8 o o o 9 0 ",
"= - 5 o o o o o o o o o o o o o o o o o o o o o o o o o o o o o o o o o o o o o o o o o o o o o o o o o o o o q w e r t o o y u ",
"i p a o o o o o o o o o o o o o o o o o o o o o o o o o o o o o o o o o o o o o o o o o o o o o o o o o o o o s w d f g h j % p ",
"k l z o o o o o o o o o o o o o o o o o o o o o o o o o o o o o o o o o o o o o o o o o o o o o o o o o o o o x @ w # f f 0 c v ",
"b h o o o o o o o o o o o o o o o o o o o o o o o o o o o o o o o o o o o o o o o o o o o o o o o o o o o o o 8 n % m M 3 N B o ",
"h h o o o o o o o o o o o o o o o o o o o o o o o o o o o o o o o o o o o o o o V C Z o o o o o o o o o o o o o A S D o M p F Z ",
"k S k c G H o o o o o o o o o o o o o o o o o o o o o o o o o o o o o o o o o J p K = 1 L o o o o o o o o o o o P 3 I o U Y 4 V ",
"T - 4 b R ; o o o o + E o o o m W o o o o o o o o o o o o o o o o o o o o o o q Q d ! u ~ o o o o o o o o o o o ^ , ^ o o / u ( ",
") _ x ` o o o o o y ' & ] o V - n ) o o o o o o o o o o o o o o o o o o o o o * [ { f f } o o o o o o o o o o o o o o o o Z | p ",
"o o o o o o o o o  .{ d ..X.o.d f O.o o o o o o o o o o o o o o o o o o o o o v Q { { ! +.o o o o o o o o o o o o o o o o o t + ",
"o o o o o o o o o @.{ #.! $.%.d { &.*.o o o o o o o o o o o o o o o o o o o o + f { d N =.o o o o o o o o o o o o o o o o o o o ",
"o o o o o o o o o -.d #.#.& ;.Q Q ' j :.o o o o o o o o o o o o o o o o o o o * { d f >.,.o o o o o o o o o o o o o o o o o o o ",
"o o o o o o o o o <.f d d #.[ { 2 w # 1.2.o o o o o o o o o o o o o o o o o o o.d d f 3.o o o o o o o o o o o o o o o o o o o o ",
"o o o o o o o o o 4.[ f { { d d 5.} ' - < o o o o o o o o o o o o o o o o o o i d #.! 6.o o o o o o o o o o o o o o o o o o o o ",
"o o o o o o o o o 7.! 0 [ ! { d Q 8.( 9.j Z o o o o o o o o o o o o o o o o ,.3 d d $ 0.o o o o o o o o o o o o o o o o o o o o ",
"o o o o o o o o o } ! q.[ & f d { . w.w K q o o o o o o o o o o o o o o o o e.K #.d r.o o o o o o o o o o o o o o o o o o o o o ",
"o o o o o o o o o t.9.y.# $ Q d Q ! u.i.' q.W o o o o o o o o o o o o o o o J Q #.d B o o o o o o o o o o o o o o o o o o o o o ",
"o o o o o o o o o 7.' R & ' [ #.Q f % p.@ 9.a.2.o o o o o o o o o o o o o o @.{ d 9.s.o o o o o o o o o o o o o o o o o o o o o ",
"o o o o o o o o o } !   d.Q f 9.[ { [ f.g.' % _ o o o o o o o o o o o o o o h.{ d N 2.o o o o o o o o o o o o o o o o o o o o o ",
"o o o o o o o o o t.9.t.j.f { k.( { d c l.3 9.F ,.o o o o o o o o o o o o o ;.d #.z.o o o o o o o o o o o o o o o o o o o o o o ",
"o o o o o o o o o 7.' 7.x.d { * c.K { 9.v. .w & : o o o o o o o o o o o o o >.#.#.k.o o o o o o o o o o o o o o o o o o o o o o ",
"o o o o o o o o o } !   % d ' b.n.m.d d M.N.B.[ h L o o o o o o o o o o o :.2 #.#.  o o o o o o o o o o o o o o o o o o o o o o ",
"o o o o o o o o o t.9.j ' #.% t o 6.w { Q V.$.S w q o o o o o o o o o o o l.w d #.C.o o o o o o o o o o o o o o o o o o o o o o ",
"o o o o o o o o o 7.' $ f { % O o ` Z.Q d N x x.9.B.A.o o o o o o o o o o H Q #.[ S.o o o o o o o o o o o o o o o o o o o o o o ",
"o o o o o o o o o } 9.[ ' ! N D.o o F.2 #.d j.G.u u H.o o o o o o o o o o J.{ d 4 2.o o o o o o o o o o o o o o o o o o o o o o ",
"o o o o o o o o o   { { d.g g E o o o K.' d 9.L.P.[ I.2.o o o o o o o o o 7 #.d U.o o o o o o o o o o o o o o o o o o o o o o o ",
"o o o o o o o o o y.#.9.%.0 K Y.o o o ,.T.f #.$ ~ ' 3 0.o o o o o o o o o j.d #.R.o o o o o o o o o o o o o o o o o o o o o o o ",
"o o o o o o o o A.N d & Y.p p H o o o o ) c d d 7.- ' E.o o o o o o o o o j #.#.W.o o o o o o o o o o o o o o o o o o o o o o o ",
"o o o o o o o o , ' #.q.Q.g u Y.o o o o o _ ! d [ c 9.!.o o o o o o o o o z.#.#.~.o o o o o o o o o o o o o o o o o o o o o o o ",
"o o o o o o o o ^.[ #./.B 0 K Y.o o o o o o (.f #.' ' 3 ).o o o o o o o o l #.d _.o o o o o o o o o o o o o o o o o o o o o o o ",
"o o o o o o o o `.{ d z.Q.p p E o o o o o o o F d #.[ ' 6 o o o o o o o o % #.d q o o o o o o o o o o o o o o o o o o o o o o o ",
"o o o o o o o o _.f d /.s K S '.o o o o o o o :.4 d { Q j 8 o o o o o o ` S #.d _.o o o o o o o o o o o o o o o o o o o o o o o ",
"o o o o o o o o _.f { &.-.! M.*.o o o o o o o o W ' #.d # ].o o o o o o N.K #.d _.o o o o o o o o o o o o o o o o o o o o o o o ",
"o o o o o o o o (.f d [.B.9.T.o o o o o o o o o o @.{ #.d Y o o o o o o {.p #.d q o o o o o o o o o o o o o o o o o o o o o o o ",
"o o o o o o o o _.Q d 3 K # }.o o o o o o o o o o o R d d f s o o o o o 8 % #.#.q o o o o o o o o o o o o o o o o o o o o o o o ",
"o o o o o o o o |.Q { & 9.M.z o o o o o o o o o o o :.2 #.#.p < o o o o o d.d #.%.o o o o o o o o o o o o o o o o o o o o o o o ",
"o o o o o o o o (.f d 9.Q 7.o o o o o o o o o o o o o  XQ #.d n A.o o o ,.l #.d 9 o o o o o o o o o o o o o o o o o o o o o o o ",
"o o o o o o o o _.f d Q w .Xo o o o o o o o o o o o o o R.d #.f r.o o o L 3 d d XX2.o o o o o o o o o o o o o o o o o o o o o o ",
"o o o o o o o o |.Q d { S m o o o o o o o o o o o o o o oXS d #.Q OXo o :.3 #.d N _ o o o o o o o o o o o o o o o o o o o o o o ",
"o o o o o o o o ^.f #.d z.U o o o o o o o o o o o o o o o +X{ #.d w @Xo :.q.#.#.9.#Xo o o o o o o o o o o o o o o o o o o o o o ",
"o o o o o o o o Y.Q #.{ i.8 o o o o o o o o o o o o o o o $X5.f d d - =.Z 3 d d Q o.o o o o o o o o o o o o o o o o o o o o o o ",
"o o o o o o o o '.9.#.d %Xo o o o o o o o o o o o o o o o o a.9.f #.d % z l #.f Q Z.8 o o o o o o o o o o o o o o o o o o o o o ",
"o o o o o o o o &X9.#.d ~.o o o o o o o o o o o o o o o o o *X2 [ 9.#.d =Xq.#.f Q d.Z o o o o o o o o o o o o o o o o o o o o o ",
"o o o o o o o o {.. #.{ #Xo o o o o o o o o o o o o o o o o o / p ' 9.#.{ K d { ! % $Xo o o o o o o o o o o o o o o o o o o o o ",
"o o o o o o o o 2.i d f * o o o o o o o o o o o o o o o o o o ,.o.' ! f #.d d d 9.w }.o o o o o o o o o o o o o o o o o o o o o ",
"o o o o o o o o o -X{ f |.o o o o o o o o o o o o o o o o o o o {.F ' [ f #.d d { Q ;Xo o o o o o o o o o o o o o o o o o o o o ",
"o o o o o o o o o > { f |.o o o o o o o o o o o o o o o o o o o o 2.g.0 [ { #.d d [ M o o o o o o o o o o o o o o o o o o o o o ",
"o o o o o o o o o :X{ { `.o o o o o o o o o o o o o o o o o o o o o o @.c ' Q ! d S b.o o o o o o o o o o o o o o o o o o o o o ",
"o o o o o o o o o 6 d d * o o o o o o o o o o o o o o o o o o o o o o o {.3.p [ #.{ 7 o o o o o o o o o o o o o o o o o o o o o ",
"o o o o o o o o o |.{ d h.o o o o o o o o o o o o o o o o o o o o o o o o o E = $ 5..Xo o o o o o o o o o o o o o o o o o o o o ",
"o o o o o o o o o '.d d T.o o o o o o o o o o o o o o o o o o o o o o o o o o o S.] ,.o o o o o o o o o o o o o o o o o o o o o ",
"o o o o o o o o o :.# #.e o o o o o o o o o o o o o o o o o o o o o o o o o o o o o o o o o o o o o o o o o o o o o L , D >X,X8 ",
"o o o o o o o o o o . d q.o o o o o o o o o o o o o o o o o o o o o o o o o o o o o o o o o o o o o o o o o o o l.} &.$ - - 3 6.",
"E.X o o o o o o o o k d N ` o o o o o o o o o o o o o o o o o o o o o o o o o o o o o o o o o o o o o o o o o o ;.# 3 <Xj.2 # 1X",
"M.R.o o o o o o o o .X- } n.o o o o o o o o o o o o o o o o o o o o o o o o o o o o o o o o o o o o o o o o o W M.u ( =X5.w c D ",
"$ 2Xo o o o o o o o o l.U o o o o o o o o o o o o o o o o o o o o o o o o o o o o o o o o o o o o o o o o o o v 0 N f 9.5.3Xx o ",
"$ 2Xo o o o o o o o o o o o o o o o o o o o o o o o o o o o o o o o o o o o o o o o o o o o o o o o o o o o o   N #XR & $ L.n.o ",
"$ = o o o o o o o o o o o o o o o o o o o o o o o o o o o o o o o o o o o o o o o o o o o o o o o o o o o o o = 4 '.` 4X3 @ 5Xn.",
"@ -Xo o o o o o o o o o o o o o o o o o o o o o o o o o o o o o o o o o o o o o o o o o o o o o o o o o o o o T u y o 8 6X3 5.}.",
"& y.x o o o o o o o o o o o o o o o o o o o o o o o o o o o o o o o o o o o o o o o o o o o o o o o o o o o o 7Xi M o o 8 6.@ q.",
"{ d Q ' A o o o o o o o o o o o o o o o o o o o o o o o o o o o o o o o o o o o o o o o o o o o o o o o o o o oX8X: o o o 2.M - ",
"e u w 0 ;.o o o o o o o o o o o o o o o o o o o o o o o o o o o o o o o o o o o o o o o o o o o o o o o o o o L E _ o o o o X.~."
};
