/* XPM */
static char *_e31121d8aa74f7a96e5b067ec98e2e8AbW07gfRNrVuaKTK[] = {
/* columns rows colors chars-per-pixel */
"64 64 197 2 ",
"   c #A285FF",
".  c #A285FE",
"X  c #9B84E4",
"o  c #8E82B6",
"O  c #8E82B4",
"+  c #9082BB",
"@  c #9A84E0",
"#  c #9F84F3",
"$  c #A185FD",
"%  c #9883DA",
"&  c #757E59",
"*  c #667B21",
"=  c #617B0D",
"-  c #607B0C",
";  c #617B0F",
":  c #637B16",
">  c #667C23",
",  c #6B7C32",
"<  c #707D47",
"1  c #7C7F71",
"2  c #9383C9",
"3  c #A185FC",
"4  c #A085F8",
"5  c #737D51",
"6  c #647B19",
"7  c #5F7A06",
"8  c #5F7A07",
"9  c #5F7A09",
"0  c #5D7A01",
"q  c #5E7A02",
"w  c #5E7A04",
"e  c #6F7D44",
"r  c #9282C5",
"t  c #7D7F75",
"y  c #6A7C30",
"u  c #5F7A08",
"i  c #787E62",
"p  c #83808E",
"a  c #6F7D43",
"s  c #5E7A03",
"d  c #617B10",
"f  c #9983DC",
"g  c #797F69",
"h  c #697C2C",
"j  c #627B11",
"k  c #5E7A05",
"l  c #667B20",
"z  c #6E7D3F",
"x  c #617B0E",
"c  c #637B15",
"v  c #777E5F",
"b  c #737E53",
"n  c #697C2B",
"m  c #647B1A",
"M  c #808080",
"N  c #9F85F5",
"B  c #757E58",
"V  c #687C28",
"C  c #767E5B",
"Z  c #868197",
"A  c #9C84E8",
"S  c #8E82B5",
"D  c #6B7C34",
"F  c #6F7D41",
"G  c #9D84EB",
"H  c #6B7C35",
"J  c #627B14",
"K  c #6B7C33",
"L  c #737D50",
"P  c #747E55",
"I  c #707D48",
"U  c #657B1D",
"Y  c #627B12",
"T  c #607A0A",
"R  c #88819F",
"E  c #7C7F72",
"W  c #627B13",
"Q  c #9282C4",
"!  c #787E64",
"~  c #717D4A",
"^  c #8981A2",
"/  c #9683D2",
"(  c #A185FA",
")  c #9D84EE",
"_  c #9583D0",
"`  c #8881A0",
"'  c #607A0B",
"]  c #677C24",
"[  c #757E5A",
"{  c #637B17",
"}  c #657B1C",
"|  c #858092",
" . c #A085F6",
".. c #697C2E",
"X. c #9483CB",
"o. c #9383C7",
"O. c #687C2A",
"+. c #637B18",
"@. c #8D82B3",
"#. c #9783D7",
"$. c #6F7D42",
"%. c #9E84F2",
"&. c #767E5D",
"*. c #9984DF",
"=. c #868199",
"-. c #647B1B",
";. c #747E54",
":. c #5D7A00",
">. c #808081",
",. c #7B7F6F",
"<. c #707D45",
"1. c #9783D5",
"2. c #777E60",
"3. c #83808D",
"4. c #808083",
"5. c #6A7C2F",
"6. c #8B81AB",
"7. c #9883DB",
"8. c #8F82B8",
"9. c #8981A3",
"0. c #727D4C",
"q. c #83808B",
"w. c #858093",
"e. c #7D7F78",
"r. c #657B1F",
"t. c #858095",
"y. c #9C84EA",
"u. c #8A81A8",
"i. c #6D7D3B",
"p. c #9082BC",
"a. c #A185FB",
"s. c #707D46",
"d. c #727D4F",
"f. c #88819E",
"g. c #9E84EF",
"h. c #9D84ED",
"j. c #717D49",
"k. c #82808A",
"l. c #9B84E7",
"z. c #6C7C37",
"x. c #6C7C39",
"c. c #667B22",
"v. c #677C26",
"b. c #6E7D3D",
"n. c #687C27",
"m. c #677C25",
"M. c #6C7C36",
"N. c #818084",
"B. c #9182BF",
"V. c #9082BE",
"C. c #687C29",
"Z. c #9A84E3",
"A. c #9A84E2",
"S. c #6D7D3C",
"D. c #9082BD",
"F. c #7E7F79",
"G. c #A085F9",
"H. c #A085F7",
"J. c #8F82BA",
"K. c #87819D",
"L. c #9883D9",
"P. c #8981A1",
"I. c #828087",
"U. c #8F82B9",
"Y. c #6D7D3A",
"T. c #787E65",
"R. c #9182C2",
"E. c #9A84E1",
"W. c #818085",
"Q. c #797E67",
"!. c #828089",
"~. c #9984DD",
"^. c #8D82B2",
"/. c #747E56",
"(. c #9D84EC",
"). c #757E57",
"_. c #787E63",
"`. c #797E68",
"'. c #657B1E",
"]. c #7F7F7C",
"[. c #8F82B7",
"{. c #848091",
"}. c #8B81AA",
"|. c #868198",
" X c #8D82B1",
".X c #7F7F7D",
"XX c #7C7F74",
"oX c #797E66",
"OX c #6E7D3E",
"+X c #717D4B",
"@X c #727D4D",
"#X c #767E5E",
"$X c #7E7F7B",
"%X c #7F7F7E",
"&X c #8981A4",
"*X c #9583CF",
"=X c #828088",
/* pixels */
"                                                                                                                                ",
"                                                                                                                                ",
"                                                                                                                                ",
"                                                                                                                                ",
"                                                                                                                                ",
"                                                                                                                                ",
"                                                . X o O + @ # $                                                                 ",
"                                            . % & * = - ; : > , < 1 2 3                                                         ",
"                                        4 + 5 6 7 8 9 ; 9 0 0 0 q w ; e 2                                                       ",
"                                  3 r t y ; 7 u 6 i p a = q 0 q q 0 0 s d 5 f                                                   ",
"                              r g h j k s w - l < z x w k c v b n = q q q 7 m M 3                                               ",
"                          N B d 7 q q q q w 8 k 7 w 0 0 7 V C Z A S D 9 q s k 9 F @                                             ",
"                        G H u s s s w 9 J K L P B I U Y u k 8 T * P R E W k 7 7 7 l Q                                           ",
"                        ! 8 k k k c ~ ^ / (         ) _ ` v H Y 7 w ' ] [ { u - ' 7 } |                                         ",
"                       ...q s 9 y X.                        3 o.! O.; k u W 9 7 6 x 8 +.@.                                      ",
"                      #.d 0 w $.%.                                . O a c k w 0 q = ..&.*.                                      ",
"                      =.w 0 -.A                                         _ ;.+.s :.:.k >.$                                       ",
"                      ,.q 0 <.                                              1.2.{ 0 :.H (                                       ",
"                      P q q a                                                   G K ' g                                         ",
"                      b s s } X                                                   G 3.)                                         ",
"                      & 7 7 9 4.                                                                                                ",
"                      ,.7 T 7 5. .                                                                                              ",
"                      6.- T u 9 E                                                                                               ",
"                      %.n 7 u 7 6 7.                                                                                            ",
"                        8.J k s 7 B                           G 9.E 5 0.& q.@.#.                                                ",
"                          ` W q 0 k w.(                   . e.r.9 k k k 7 8 = 6 K &.t.Q y..                                     ",
"                            u.r.0 :.s i.p.a.            . ! 9 k ' V s.d.n j T 7 w k 7 ' -.a f.g.                                ",
"                              h.j.q :.0 = H k.l.      f z.7 w 6 ;.L x.c.; T T 7 w s 0 :.:.:.s W g h.                            ",
"                                  i 7 0 0 q k d v.b.h 8 :.:.q 7 8 7 k 7 u x d = d ; - ' 7 0 :.:.q n.f                           ",
"                                  ( M 6 w 0 :.:.:.:.:.:.:.8 -.m.M.~ &.N.u.B.V.V.V.V.V.B.p.M C.s 0 0 U Z.                        ",
"                                      A.e.S.r.Y T 8 T { v D.A 3 $                           . F.' :.0 x.                        ",
"                                          $ G.$ 3 4 H.a.                                        J.' :.q K.                      ",
"                                                                                                  ^ q :.d L.                    ",
"                                                                                                    V :.0 <                     ",
"                    P.1.                                                                            I.k 0 x U.                  ",
"                # Y.' Y.#                                                                           X +.0 s <.                  ",
"                T.q 0 - R.                                                                            b.w s W Q                 ",
"              E.j 0 0 w k.                                                                            ;.8 u 8 W.                ",
"              s.w 0 9 7 Q.                                                                            d.7 ' 7 4.                ",
"            W.' w s 6 7 P                                                                             ;.8 T u !.                ",
"          ~.m 7 9 k v.7 5                                                                             <.w w - ^.                ",
"          W.u W c 9 D 8 /.                                                                          *.+.q s > (.                ",
"          ).7 h ; ' i.8 ;.                                                                          >.u q 8 _.                  ",
"          L k H - = i.7 b                                                                         ) c.0 q U A.                  ",
"          `.8 '.x ; z 8 b                                                                         `.w 0 8 ].                    ",
"          [.; 9 u = <.7 x.                                                                      p.x :.s S.a.                    ",
"          ( M.k s 7 b 8 } E.                                                                  . C.0 0 } %                       ",
"            [.Y q 0 T ' T {.                                                                . _.0 :.= D.                        ",
"              }.: 0 0 0 0 ' |.(                                                         3 / , 0 :.k  X                          ",
"                A h q 0 :.:.q r..X7.$                                                .q...7 :.:.w q.                            ",
"                    I.W q :.:.:.0 ' x.w.*.# G..                       3 # ) X.=.N.Q.c.w 0 :.0 j 8.                              ",
"                      E.XXoX> w 0 :.0 q 9 c > O.O.y H M.OX$.$.+Xd.~ @Xi.v.r.Y u w q 0 :.q ; #X)                                 ",
"                              U.$.- q :.:.:.0 q q s k s w 7 k 7 8 k 7 7 w w w s q 0 q Y T.f                                     ",
"                                  % w.$.6 u w s s s w w 7 9 ' = = ' - - u 7 k w - ] $X@                                         ",
"                                         .R.%XI C.} : ; - 9 k 7 8 7 7 8 u ; l +X&X#                                             ",
"                                                 .E.*XR.8.^ k.I.k.=X=X3.}.D.*.                                                  ",
"                                                                                                                                ",
"                                                                                                                                ",
"                                                                                                                                ",
"                                                                                                                                ",
"                                                                                                                                ",
"                                                                                                                                ",
"                                                                                                                                ",
"                                                                                                                                "
};
