/* XPM */
static char *_aabf27e03a840e1a273f156ea83257aCygntUR0xPgR3hnz[] = {
/* columns rows colors chars-per-pixel */
"64 64 216 2 ",
"   c #727D4F",
".  c #637B17",
"X  c #9182C2",
"o  c #A285FF",
"O  c #9E84F2",
"+  c #828088",
"@  c #637B16",
"#  c #5F7A09",
"$  c #637B15",
"%  c #637B18",
"&  c #617B10",
"*  c #808082",
"=  c #707D48",
"-  c #627B13",
";  c #9082BE",
":  c #8A81A6",
">  c #787E64",
",  c #9383C8",
"<  c #9583CF",
"1  c #858093",
"2  c #657B1D",
"3  c #647B1A",
"4  c #627B14",
"5  c #9082BD",
"6  c #7E7F7B",
"7  c #7A7F6C",
"8  c #A185FD",
"9  c #7B7F6E",
"0  c #607B0C",
"q  c #808083",
"w  c #607A0A",
"e  c #697C2D",
"r  c #8881A0",
"t  c #A085F7",
"y  c #83808E",
"u  c #617B0E",
"i  c #6C7C37",
"p  c #617B0F",
"a  c #9282C3",
"s  c #8C81AC",
"d  c #5D7A01",
"f  c #5E7A03",
"g  c #617B0D",
"h  c #687C29",
"j  c #6D7D3A",
"k  c #687C27",
"l  c #647B1B",
"z  c #9C84E8",
"x  c #9984DD",
"c  c #677C24",
"v  c #818084",
"b  c #687C28",
"n  c #A285FE",
"m  c #9B84E4",
"M  c #8E82B6",
"N  c #8E82B4",
"B  c #9082BB",
"V  c #9A84E0",
"C  c #9F84F3",
"Z  c #6A7C30",
"A  c #9483CA",
"S  c #848090",
"D  c #627B12",
"F  c #8D82B0",
"G  c #9883DA",
"H  c #757E59",
"J  c #667B21",
"K  c #667C23",
"L  c #6B7C32",
"P  c #707D47",
"I  c #7C7F71",
"U  c #9383C9",
"Y  c #A185FC",
"T  c #717D4B",
"R  c #627B11",
"E  c #8D82B2",
"W  c #707D45",
"Q  c #A085F6",
"!  c #6C7C38",
"~  c #8F82B8",
"^  c #A085F8",
"/  c #737D51",
"(  c #647B19",
")  c #5F7A06",
"_  c #5F7A07",
"`  c #5E7A02",
"'  c #5E7A04",
"]  c #6F7D44",
"[  c #828089",
"{  c #8C82AF",
"}  c #9E84F0",
"|  c #6C7C36",
" . c #8B81AB",
".. c #6F7D43",
"X. c #9282C5",
"o. c #7D7F75",
"O. c #5F7A08",
"+. c #787E62",
"@. c #9983DC",
"#. c #9E84EF",
"$. c #858092",
"%. c #667B22",
"&. c #9D84EE",
"*. c #9683D4",
"=. c #A085F9",
"-. c #797F69",
";. c #697C2C",
":. c #5E7A05",
">. c #667B20",
",. c #6E7D3F",
"<. c #777E5F",
"1. c #737E53",
"2. c #697C2B",
"3. c #808080",
"4. c #9F85F5",
"5. c #757E58",
"6. c #767E5B",
"7. c #868197",
"8. c #8E82B5",
"9. c #6B7C34",
"0. c #6F7D41",
"q. c #9D84EB",
"w. c #6B7C35",
"e. c #6B7C33",
"r. c #737D50",
"t. c #747E55",
"y. c #88819F",
"u. c #7C7F72",
"i. c #9282C4",
"p. c #717D4A",
"a. c #8981A2",
"s. c #9683D2",
"d. c #A185FA",
"f. c #9583D0",
"g. c #607A0B",
"h. c #757E5A",
"j. c #657B1C",
"k. c #697C2E",
"l. c #9483CB",
"z. c #9383C7",
"x. c #687C2A",
"c. c #8D82B3",
"v. c #9783D7",
"b. c #6F7D42",
"n. c #767E5D",
"m. c #9984DF",
"M. c #868199",
"N. c #747E54",
"B. c #5D7A00",
"V. c #808081",
"C. c #7B7F6F",
"Z. c #9783D5",
"A. c #777E60",
"S. c #83808D",
"D. c #6A7C2F",
"F. c #9883DB",
"G. c #8981A3",
"H. c #727D4C",
"J. c #83808B",
"K. c #7D7F78",
"L. c #657B1F",
"P. c #858095",
"I. c #9C84EA",
"U. c #8A81A8",
"Y. c #6D7D3B",
"T. c #9082BC",
"R. c #A185FB",
"E. c #707D46",
"W. c #88819E",
"Q. c #9D84ED",
"!. c #717D49",
"~. c #82808A",
"^. c #9B84E7",
"/. c #6C7C39",
"(. c #677C26",
"). c #6E7D3D",
"_. c #677C25",
"`. c #9182BF",
"'. c #9A84E3",
"]. c #9A84E2",
"[. c #6D7D3C",
"{. c #7E7F79",
"}. c #8F82BA",
"|. c #87819D",
" X c #9883D9",
".X c #8981A1",
"XX c #828087",
"oX c #8F82B9",
"OX c #787E65",
"+X c #9A84E1",
"@X c #818085",
"#X c #797E67",
"$X c #747E56",
"%X c #9D84EC",
"&X c #757E57",
"*X c #787E63",
"=X c #797E68",
"-X c #657B1E",
";X c #7F7F7C",
":X c #8F82B7",
">X c #848091",
",X c #8B81AA",
"<X c #868198",
"1X c #8D82B1",
"2X c #7F7F7D",
"3X c #7C7F74",
"4X c #797E66",
"5X c #6E7D3E",
"6X c #727D4D",
"7X c #767E5E",
"8X c #9F85F4",
"9X c #7F7F7E",
"0X c #8981A4",
"qX c #87819C",
"wX c #767E5C",
"eX c #858094",
/* pixels */
"  . X o o o o o o o o o o o o o o o o o o o o o o o o o o o o o o o o o o o o o o o o o o o o o o o o o o o o O + @ # $ % & % * ",
"= - ; o o o o o o o o o o o o o o o o o o o o o o o o o o o o o o o o o o o o o o o o o o o o o o o o o o o o : & @ > , < 1 2 3 ",
"= 4 5 o o o o o o o o o o o o o o o o o o o o o o o o o o o o o o o o o o o o o o o o o o o o o o o o o o o o 6 # 7 8 o o o 9 0 ",
"= - 5 o o o o o o o o o o o o o o o o o o o o o o o o o o o o o o o o o o o o o o o o o o o o o o o o o o o o q w e r t o o y u ",
"i p a o o o o o o o o o o o o o o o o o o o o o o o o o o o o o o o o o o o o o o o o o o o o o o o o o o o o s w d f g h j % p ",
"k l z o o o o o o o o o o o o o o o o o o o o o o o o o o o o o o o o o o o o o o o o o o o o o o o o o o o o x @ w # f f 0 c v ",
"b h o o o o o o o o o o o o o o o o o o o o o o n m M N B V C 8 o o o o o o o o o o o o o o o o o o o o o o o 8 Z % A S 3 D F o ",
"h h o o o o o o o o o o o o o o o o o o o o n G H J g 0 p @ K L P I U Y o o o o o o o o o o o o o o o o o o o o T R E o S p W Q ",
"k R k c ! ~ o o o o o o o o o o o o o o ^ B / ( ) _ # p # d d d ` ' p ] U o o o o o o o o o o o o o o o o o o o [ 3 { o } | 4  .",
"H - 4 b ..; o o o o o o o o o o o Y X.o.Z p ) O.( +.y ..g ` d ` ` d d f & / @.o o o o o o o o o o o o o o o o o #., #.o o $.u %.",
"&.*.x =.o o o o o o o o o o o X.-.;.R :.f ' 0 >.P ,.u ' :.$ <.1.2.g ` ` ` ) 3 3.Y o o o o o o o o o o o o o o o o o o o o Q -.p ",
"o o o o o o o o o o o o o 4.5.& ) ` ` ` ` ' _ :.) ' d d ) b 6.7.z 8.9.# ` f :.# 0.V o o o o o o o o o o o o o o o o o o o o t + ",
"o o o o o o o o o o o o q.w.O.f f f ' # 4 e.r.t.5.= 2 D O.:._ w J t.y.u.- :.) ) ) >.i.o o o o o o o o o o o o o o o o o o o o o ",
"o o o o o o o o o o o o > _ :.:.:.$ p.a.s.d.o o o o &.f.r <.w.D ) ' g.c h.. O.0 g.) j.$.o o o o o o o o o o o o o o o o o o o o ",
"o o o o o o o o o o o Q k.` f # Z l.o o o o o o o o o o o o Y z.> x.p :.O.- # ) ( u _ % c.o o o o o o o o o o o o o o o o o o o ",
"o o o o o o o o o o o v.& d ' b.O o o o o o o o o o o o o o o o o n N ..$ :.' d ` g k.n.m.o o o o o o o o o o o o o o o o o o o ",
"o o o o o o o o o o o M.' d l z o o o o o o o o o o o o o o o o o o o o f.N.% f B.B.:.V.8 o o o o o o o o o o o o o o o o o o o ",
"o o o o o o o o o o o C.` d W o o o o o o o o o o o o o o o o o o o o o o o Z.A.. d B.w.d.o o o o o o o o o o o o o o o o o o o ",
"o o o o o o o o o o o t.` ` ..o o o o o o o o o o o o o o o o o o o o o o o o o q.e.g.-.o o o o o o o o o o o o o o o o o o o o ",
"o o o o o o o o o o o 1.f f j.m o o o o o o o o o o o o o o o o o o o o o o o o o q.S.&.o o o o o o o o o o o o o o o o o o o o ",
"o o o o o o o o o o o H ) ) # q o o o o o o o o o o o o o o o o o o o o o o o o o o o o o o o o o o o o o o o o o o o o o o o o ",
"o o o o o o o o o o o C.) w ) D.Q o o o o o o o o o o o o o o o o o o o o o o o o o o o o o o o o o o o o o o o o o o o o o o o ",
"o o o o o o o o o o o  .0 w O.# u.o o o o o o o o o o o o o o o o o o o o o o o o o o o o o o o o o o o o o o o o o o o o o o o ",
"o o o o o o o o o o o O 2.) O.) ( F.o o o o o o o o o o o o o o o o o o o o o o o o o o o o o o o o o o o o o o o o o o o o o o ",
"o o o o o o o o o o o o ~ 4 :.f ) 5.o o o o o o o o o o o o o q.G.u./ H.H J.c.v.o o o o o o o o o o o o o o o o o o o o o o o o ",
"o o o o o o o o o o o o o r - ` d :.1 d.o o o o o o o o o n K.L.# :.:.:.) _ g ( e.n.P.i.I.n o o o o o o o o o o o o o o o o o o ",
"o o o o o o o o o o o o o o U.L.d B.f Y.T.R.o o o o o o n > # :.g.b E.  2.R w ) ' :.) g.l ..W.#.o o o o o o o o o o o o o o o o ",
"o o o o o o o o o o o o o o o Q.!.` B.d g w.~.^.o o o @.i ) ' ( N.r./.%.p w w ) ' f d B.B.B.f - -.Q.o o o o o o o o o o o o o o ",
"o o o o o o o o o o o o o o o o o +.) d d ` :.& (.).;._ B.B.` ) _ ) :.) O.u & g & p 0 g.) d B.B.` k @.o o o o o o o o o o o o o ",
"o o o o o o o o o o o o o o o o o d.3.( ' d B.B.B.B.B.B.B._ l _.| p.n.v U.`.; ; ; ; ; `.T.3.h f d d 2 '.o o o o o o o o o o o o ",
"o o o o o o o o o o o o o o o o o o o ].K.[.L.D w _ w . <.5 z Y 8 o o o o o o o o o o o o o n {.g.B.d /.o o o o o o o o o o o o ",
"o o o o o o o o o o o o o o o o o o o o o 8 =.8 Y ^ t R.o o o o o o o o o o o o o o o o o o o o }.g.B.` |.o o o o o o o o o o o ",
"o o o o o o o o o o o o o o o o o o o o o o o o o o o o o o o o o o o o o o o o o o o o o o o o o a.` B.&  Xo o o o o o o o o o ",
"o o o o o o o o o o o o o o o o o o o o o o o o o o o o o o o o o o o o o o o o o o o o o o o o o o b B.d P o o o o o o o o o o ",
"o o o o o o o o o o .XZ.o o o o o o o o o o o o o o o o o o o o o o o o o o o o o o o o o o o o o o XX:.d u oXo o o o o o o o o ",
"o o o o o o o o C j g.j C o o o o o o o o o o o o o o o o o o o o o o o o o o o o o o o o o o o o o m % d f W o o o o o o o o o ",
"o o o o o o o o OX` d 0 X o o o o o o o o o o o o o o o o o o o o o o o o o o o o o o o o o o o o o o ).' f - i.o o o o o o o o ",
"o o o o o o o +XR d d ' ~.o o o o o o o o o o o o o o o o o o o o o o o o o o o o o o o o o o o o o o N._ O._ @Xo o o o o o o o ",
"o o o o o o o E.' d # ) #Xo o o o o o o o o o o o o o o o o o o o o o o o o o o o o o o o o o o o o o   ) g.) q o o o o o o o o ",
"o o o o o o @Xg.' f ( ) t.o o o o o o o o o o o o o o o o o o o o o o o o o o o o o o o o o o o o o o N._ w O.[ o o o o o o o o ",
"o o o o o x 3 ) # :.(.) / o o o o o o o o o o o o o o o o o o o o o o o o o o o o o o o o o o o o o o W ' ' 0 E o o o o o o o o ",
"o o o o o @XO.- $ # 9._ $Xo o o o o o o o o o o o o o o o o o o o o o o o o o o o o o o o o o o o o m.% ` f K %Xo o o o o o o o ",
"o o o o o &X) ;.p g.Y._ N.o o o o o o o o o o o o o o o o o o o o o o o o o o o o o o o o o o o o o V.O.` _ *Xo o o o o o o o o ",
"o o o o o r.:.w.0 g Y.) 1.o o o o o o o o o o o o o o o o o o o o o o o o o o o o o o o o o o o o &.%.d ` 2 ].o o o o o o o o o ",
"o o o o o =X_ -Xu p ,._ 1.o o o o o o o o o o o o o o o o o o o o o o o o o o o o o o o o o o o o =X' d _ ;Xo o o o o o o o o o ",
"o o o o o :Xp # O.g W ) /.o o o o o o o o o o o o o o o o o o o o o o o o o o o o o o o o o o o T.u B.f [.R.o o o o o o o o o o ",
"o o o o o d.| :.f ) 1._ j.+Xo o o o o o o o o o o o o o o o o o o o o o o o o o o o o o o o o n h d d j.G o o o o o o o o o o o ",
"o o o o o o :XD ` d w g.w >Xo o o o o o o o o o o o o o o o o o o o o o o o o o o o o o o o n *Xd B.g 5 o o o o o o o o o o o o ",
"o o o o o o o ,X@ d d d d g.<Xd.o o o o o o o o o o o o o o o o o o o o o o o o o o o o Y s.L d B.:.1Xo o o o o o o o o o o o o ",
"o o o o o o o o z ;.` d B.B.` L.2XF.8 o o o o o o o o o o o o o o o o o o o o o o o Q J.k.) B.B.' J.o o o o o o o o o o o o o o ",
"o o o o o o o o o o XX- ` B.B.B.d g./.1 m.C =.n o o o o o o o o o o o Y C &.l.M.v #X%.' d B.d R ~ o o o o o o o o o o o o o o o ",
"o o o o o o o o o o o +X3X4XK ' d B.d ` # $ K x.x.Z w.| 5Xb.b.T   p.6XY.(.L.D O.' ` d B.` p 7X&.o o o o o o o o o o o o o o o o ",
"o o o o o o o o o o o o o o o oXb.0 ` B.B.B.d ` ` f :.f ' ) :.) _ :.) ) ' ' ' f ` d ` D OX@.o o o o o o o o o o o o o o o o o o ",
"o o o o o o o o o o o o o o o o o G 1 b.( O.' f f f ' ' ) # g.g g g.0 0 O.) :.' 0 c 6 V o o o o o o o o o o o o o o 8X, E 8. X8 ",
"o o o o o o o o o o o o o o o o o o o o Q X 9X= h j.@ p 0 # :.) _ ) ) _ O.p >.T 0XC o o o o o o o o o o o o o o v.N.(.$ - - 3 qX",
"<XX o o o o o o o o o o o o o o o o o o o o o o Q +X< X ~ a.~.XX~.+ + S.,X5 m.o o o o o o o o o o o o o o o o o &X# 3 5XP 2 # 6.",
">.wXo o o o o o o o o o o o o o o o o o o o o o o o o o o o o o o o o o o o o o o o o o o o o o o o o o o o o ].>.u %.D.( w c E ",
"$ p.o o o o o o o o o o o o o o o o o o o o o o o o o o o o o o o o o o o o o o o o o o o o o o o o o o o o o v 0 D f ) ( 4Xx o ",
"$ p.o o o o o o o o o o o o o o o o o o o o o o o o o o o o o o o o o o o o o o o o o o o o o o o o o o o o o   D XX..& $ eXY o ",
"$ = o o o o o o o o o o o o o o o o o o o o o o o o o o o o o o o o o o o o o o o o o o o o o o o o o o o o o = 4 T.=.7.3 @ P.Y ",
"@ !.o o o o o o o o o o o o o o o o o o o o o o o o o o o o o o o o o o o o o o o o o o o o o o o o o o o o o H u y o 8 G.3 ( a.",
"& L x o o o o o o o o o o o o o o o o o o o o o o o o o o o o o o o o o o o o o o o o o o o o o o o o o o o o oXi S o o 8 qX@ j.",
"` d ' O.T o o o o o o o o o o o o o o o o o o o o o o o o o o o o o o o o o o o o o o o o o o o o o o o o o o ^.=X: o o o n S - ",
"e u w 0 &Xo o o o o o o o o o o o o o o o o o o o o o o o o o o o o o o o o o o o o o o o o o o o o o o o o o 8XM *.o o o o d.9X"
};
