/* XPM */
static char *_5a3944bd4d047a6a7dc13af2cf1df16OBgRF7ua52qLCVjV[] = {
/* columns rows colors chars-per-pixel */
"64 64 202 2 ",
"   c #FFF886",
".  c #F7F086",
"X  c #8A8980",
"o  c #D7D284",
"O  c #51547D",
"+  c #0F157A",
"@  c #5D5F7E",
"#  c #E5DF85",
"$  c #878780",
"%  c #E8E285",
"&  c #A4A281",
"*  c #0B117A",
"=  c #070E79",
"-  c #72737F",
";  c #57597D",
":  c #11177A",
">  c #77777F",
",  c #13197A",
"<  c #010879",
"1  c #1A207A",
"2  c #EDE785",
"3  c #2D327B",
"4  c #060D79",
"5  c #FBF486",
"6  c #8D8C80",
"7  c #000779",
"8  c #50537D",
"9  c #F8F186",
"0  c #31357B",
"q  c #5A5C7E",
"w  c #79797F",
"e  c #FDF686",
"r  c #FEF786",
"t  c #1E237B",
"y  c #050C79",
"u  c #DBD684",
"i  c #5F617E",
"p  c #080F79",
"a  c #12187A",
"s  c #0C127A",
"d  c #949381",
"f  c #E6E085",
"g  c #21267B",
"h  c #DDD884",
"j  c #252A7B",
"k  c #E9E385",
"l  c #929180",
"z  c #63657E",
"x  c #65667E",
"c  c #3F437C",
"v  c #030A79",
"b  c #C9C583",
"n  c #3D417C",
"m  c #040B79",
"M  c #191F7A",
"N  c #141A7A",
"B  c #0D137A",
"V  c #ECE685",
"C  c #7C7C7F",
"Z  c #B6B382",
"A  c #2B307B",
"S  c #D9D484",
"D  c #2F337B",
"F  c #5C5E7E",
"G  c #C6C283",
"H  c #C4C083",
"J  c #F4EE85",
"K  c #262B7B",
"L  c #020979",
"P  c #818180",
"I  c #7A7A7F",
"U  c #46497D",
"Y  c #C5C183",
"T  c #848480",
"R  c #F1EB85",
"E  c #F5EF85",
"W  c #7E7E7F",
"Q  c #858580",
"!  c #9C9A81",
"~  c #EBE585",
"^  c #4A4D7D",
"/  c #AAA882",
"(  c #56587D",
")  c #091079",
"_  c #4F527D",
"`  c #161C7A",
"'  c #B9B682",
"]  c #383C7C",
"[  c #181E7A",
"{  c #0A107A",
"}  c #F6EF86",
"|  c #2C317B",
" . c #F9F286",
".. c #1B217A",
"X. c #F2EC85",
"o. c #868680",
"O. c #2E327B",
"+. c #979681",
"@. c #35397C",
"#. c #22277B",
"$. c #B1AE82",
"%. c #71727F",
"&. c #3C407C",
"*. c #20257B",
"=. c #CAC683",
"-. c #44477C",
";. c #33377C",
":. c #53557D",
">. c #474A7D",
",. c #60627E",
"<. c #B2AF82",
"1. c #CFCB84",
"2. c #D1CD84",
"3. c #FCF586",
"4. c #939280",
"5. c #A9A782",
"6. c #8E8D80",
"7. c #282D7B",
"8. c #C0BC83",
"9. c #6A6B7E",
"0. c #2A2F7B",
"q. c #74757F",
"w. c #A09E81",
"e. c #171D7A",
"r. c #D0CC84",
"t. c #E4DE85",
"y. c #C3BF83",
"u. c #54567D",
"i. c #595B7E",
"p. c #CDC983",
"a. c #43467C",
"s. c #EEE885",
"d. c #838380",
"f. c #4B4E7D",
"g. c #9B9981",
"h. c #73747F",
"j. c #A2A081",
"k. c #908F80",
"l. c #34387C",
"z. c #A7A582",
"x. c #1C217A",
"c. c #6E6F7F",
"v. c #DAD584",
"b. c #24297B",
"n. c #F3ED85",
"m. c #DCD784",
"M. c #75767F",
"N. c #B8B582",
"B. c #D2CD84",
"V. c #7D7D7F",
"C. c #E7E185",
"Z. c #32367C",
"A. c #B5B282",
"S. c #828280",
"D. c gray50",
"F. c #23287B",
"G. c #52547D",
"H. c #0E147A",
"J. c #42457C",
"K. c #292E7B",
"L. c #FAF386",
"P. c #A19F81",
"I. c #64667E",
"U. c #A3A181",
"Y. c #10167A",
"T. c #9E9C81",
"R. c #ACAA82",
"E. c #999881",
"W. c #5B5D7E",
"Q. c #9D9B81",
"!. c #373B7C",
"~. c #7B7B7F",
"^. c #959481",
"/. c #969581",
"(. c #D6D184",
"). c #484B7D",
"_. c #AEAB82",
"`. c #CCC883",
"'. c #1D227A",
"]. c #E0DB84",
"[. c #BBB883",
"{. c #C2BE83",
"}. c #66677E",
"|. c #4C4F7D",
" X c #40437C",
".X c #3B3F7C",
"XX c #8C8B80",
"oX c #4D507D",
"OX c #F0EA85",
"+X c #6C6D7F",
"@X c #989781",
"#X c #272C7B",
"$X c #6B6C7E",
"%X c #3E427C",
"&X c #BFBC83",
"*X c #AFAC82",
"=X c #151B7A",
"-X c #888880",
";X c #67687E",
":X c #E1DC84",
">X c #61637E",
",X c #C7C383",
/* pixels */
"                                                                                                                                ",
"                                                                                                                                ",
"                                                                                                                                ",
"                                                                                                                                ",
"                                                                                                                                ",
"                                                                                                                                ",
"                                                                                                                                ",
"                                                                                                                                ",
"                                                                                                                                ",
"                        . X o                                                                                                   ",
"                        O + @                                                         # $ %                                     ",
"                      & * = -                                                         ; : >                                     ",
"                    . , < 1 2                                                       . 3 4 > . 5                                 ",
"                    6 < 7 8                                                         9 0 4 8 q w e                               ",
"                  r t 7 y u                                                           i p a : s d                               ",
"                  f = 7 g                                                             h 1 p + = j k                             ",
"                  l < 7 z                                                               > p p = p x                             ",
"                  c 7 v b                                                               . n p m m M u                           ",
"                . N 7 B 9                                                                 V 0 4 < m C                           ",
"                Z y 7 A                                                                     S g < < D e                         ",
"              r O < < F                                                                       G B 7 m H                         ",
"              J K < L P                                                                         I < 7 U                         ",
"              Y B < m T                                                                         R B 7 B E                       ",
"              W p m y Q                           J T ! ~                                         ^ 7 L /                       ",
"              ( 4 ) 4 T                         r _ y = ` O / 9                                   ' L 7 8                       ",
"              ] y B y T                         o [ L < 7 < = K P                                 . { 7 K                       ",
"            } | = , 4 Q                         Q = L L L < < L ) (  .                              ..7 ,                       ",
"            E K 4 , 4 T                       X.| L L [ o.O.y L v s +.                              @.7 p X.                    ",
"            E #.4 , y T                       $.= < = %.  V &.= L < *.X.                            O 7 v =.                    ",
"            E K = N = o.                      -.< < ;.}     R :.{ 7 < >.r                           ,.7 L <.                    ",
"            } K = , 4 T                     1.m 7 * 2.        3.! = 7 L %.                          :.7 L <.                    ",
"            E #.y a 4 T                     | 7 L 4.              5.m 7 m 6.                        &.7 m '                     ",
"            . 7.= N = $                   8.v 7 1                   9.L 7 * $.                    3.0.7 y Z                     ",
"            r @.y : 4 q.                R M 7 L w.                  e A < < e.r.                  t., 7 { y.                    ",
"              u.4 + 4 q                 i.< 7 7.5                     p.a 7 L a.                  Z = 7 e.s.                    ",
"              d.= * 4 f.              g.y 7 y p.                        h.y < * j.                k.L 7 l.                      ",
"              z.p 4 m 0 9           V x.< < @                           2 x.< L j ~               > < < c.                      ",
"              v.` y m b.n.        3._ L 7 : m.                            u.m m ) M.              8 7 v N.                      ",
"              n.b.m y ` B.        j.B < L i.e                             V.4 s 4 t C.            t 7 { 2                       ",
"              9 Z.m m s A.      n.0.v < ` u                               S.y ..a ) D.          n.p 7 F.                        ",
"                G.y m H.'       i ) v m J.r                               Q 4 K J.4 K.L.        P.< 7 I.                        ",
"                I.m v B '     U.Y.4 y * T.                                T 4 j R.+ * E.        W.7 L <.                        ",
"                T m L = Q.  r O.y p y b.2                                 P y #.n.!.4 !.        7.7 ) n.                        ",
"                Q.) v y ~.  ^.B 4 4 H.l                                   6 = x.% /.B B &     E + 7 1                           ",
"                (.: L v &.n.0.v y = ).5                                   _.{ + 8.. Z.4 &.    `.4 7 @.                          ",
"                J K v y ` Q.+ L m '.].                                    [.+ { <.  6.) a {.  }.v < |.                          ",
"                e  Xy 4 p .Xv < { XX                                      # ..4 XX  # g 4 oXOXK < L i                           ",
"                  +X4 ) y = < L &.e                                       L.D 4 -     h.p ` ^.{ < = @X                          ",
"                  E.p s = 7 7 B 8.                                          >.4 u.    m.[ p #Xv < a 2.                          ",
"                  v.` = { 7 < $X                                            x = 3 E     %XL L L L 7.}                           ",
"                    &.y y < '.J                                             5.{ { XX3.&X..< 7 y y oX                            ",
"                    *X=Xy * R.                                              R 0 y H.3 N y m < v p -X                            ",
"                      1.;XU.                                                  b #.p y 4 x.+X* y *.:X                            ",
"                                                                                ].T F +Xh   g.>X,X                              ",
"                                                                                                                                ",
"                                                                                                                                ",
"                                                                                                                                ",
"                                                                                                                                ",
"                                                                                                                                ",
"                                                                                                                                ",
"                                                                                                                                ",
"                                                                                                                                ",
"                                                                                                                                ",
"                                                                                                                                "
};
