/* XPM */
static char *_105a26c180e467f84377b30574648a6V8p82JNvJ2hxLSag[] = {
/* columns rows colors chars-per-pixel */
"64 64 220 2 ",
"   c #4F527D",
".  c #171D7A",
"X  c #C2BE83",
"o  c #FFF886",
"O  c #F2EC85",
"+  c #888880",
"@  c #161C7A",
"#  c #091079",
"$  c #151B7A",
"%  c #181E7A",
"&  c #10167A",
"*  c #828280",
"=  c #484B7D",
"-  c #13197A",
";  c #BEBB83",
":  c #A6A481",
">  c #64667E",
",  c #C8C483",
"<  c #CFCB84",
"1  c #939280",
"2  c #1D227A",
"3  c #1A207A",
"4  c #141A7A",
"5  c #BDBA83",
"6  c #7B7B7F",
"7  c #6C6D7F",
"8  c #FDF686",
"9  c #6E6F7F",
"0  c #0C127A",
"q  c #838380",
"w  c #0A107A",
"e  c #2D327B",
"r  c #A09E81",
"t  c #F7F086",
"y  c #8E8D80",
"u  c #0E147A",
"i  c #373B7C",
"p  c #0F157A",
"a  c #C3BF83",
"s  c #ACAA82",
"d  c #010879",
"f  c #030A79",
"g  c #0D137A",
"h  c #292E7B",
"j  c #3A3E7C",
"k  c #272C7B",
"l  c #1B217A",
"z  c #E8E285",
"x  c #DDD884",
"c  c #24297B",
"v  c #848480",
"b  c #282D7B",
"n  c #30347B",
"m  c #CAC683",
"M  c #908F80",
"N  c #12187A",
"B  c #B0AD82",
"V  c #4B4E7D",
"C  c #11177A",
"Z  c #B2AF82",
"A  c #45487D",
"S  c #F6EF86",
"D  c #383C7C",
"F  c #B8B582",
"G  c #898880",
"H  c #AFAC82",
"J  c #F0EA85",
"K  c #363A7C",
"L  c #ABA982",
"P  c #595B7E",
"I  c #43467C",
"U  c #8A8980",
"Y  c #D7D284",
"T  c #EFE985",
"R  c #929180",
"E  c #22277B",
"W  c #EEE885",
"Q  c #D4CF84",
"!  c #F9F286",
"~  c #51547D",
"^  c #5D5F7E",
"/  c #E5DF85",
"(  c #878780",
")  c #696A7E",
"_  c #A4A281",
"`  c #0B117A",
"'  c #070E79",
"]  c #72737F",
"[  c #57597D",
"{  c #77777F",
"}  c #EDE785",
"|  c #060D79",
" . c #FBF486",
".. c #8D8C80",
"X. c #000779",
"o. c #50537D",
"O. c #F8F186",
"+. c #31357B",
"@. c #5A5C7E",
"#. c #79797F",
"$. c #FEF786",
"%. c #1E237B",
"&. c #050C79",
"*. c #DBD684",
"=. c #5F617E",
"-. c #080F79",
";. c #949381",
":. c #E6E085",
">. c #21267B",
",. c #252A7B",
"<. c #E9E385",
"1. c #63657E",
"2. c #65667E",
"3. c #3F437C",
"4. c #C9C583",
"5. c #3D417C",
"6. c #040B79",
"7. c #191F7A",
"8. c #ECE685",
"9. c #7C7C7F",
"0. c #B6B382",
"q. c #2B307B",
"w. c #D9D484",
"e. c #2F337B",
"r. c #5C5E7E",
"t. c #C6C283",
"y. c #C4C083",
"u. c #F4EE85",
"i. c #262B7B",
"p. c #020979",
"a. c #818180",
"s. c #7A7A7F",
"d. c #46497D",
"f. c #C5C183",
"g. c #F1EB85",
"h. c #F5EF85",
"j. c #7E7E7F",
"k. c #858580",
"l. c #9C9A81",
"z. c #EBE585",
"x. c #4A4D7D",
"c. c #AAA882",
"v. c #56587D",
"b. c #B9B682",
"n. c #2C317B",
"m. c #868680",
"M. c #2E327B",
"N. c #979681",
"B. c #35397C",
"V. c #B1AE82",
"C. c #71727F",
"Z. c #3C407C",
"A. c #20257B",
"S. c #44477C",
"D. c #33377C",
"F. c #53557D",
"G. c #474A7D",
"H. c #60627E",
"J. c #D1CD84",
"K. c #FCF586",
"L. c #A9A782",
"P. c #C0BC83",
"I. c #6A6B7E",
"U. c #2A2F7B",
"Y. c #74757F",
"T. c #D0CC84",
"R. c #E4DE85",
"E. c #54567D",
"W. c #CDC983",
"Q. c #9B9981",
"!. c #73747F",
"~. c #A2A081",
"^. c #34387C",
"/. c #A7A582",
"(. c #1C217A",
"). c #DAD584",
"_. c #F3ED85",
"`. c #DCD784",
"'. c #75767F",
"]. c #D2CD84",
"[. c #7D7D7F",
"{. c #E7E185",
"}. c #32367C",
"|. c #B5B282",
" X c gray50",
".X c #23287B",
"XX c #52547D",
"oX c #42457C",
"OX c #FAF386",
"+X c #A19F81",
"@X c #A3A181",
"#X c #9E9C81",
"$X c #999881",
"%X c #5B5D7E",
"&X c #9D9B81",
"*X c #959481",
"=X c #969581",
"-X c #D6D184",
";X c #AEAB82",
":X c #CCC883",
">X c #E0DB84",
",X c #BBB883",
"<X c #66677E",
"1X c #4C4F7D",
"2X c #40437C",
"3X c #3B3F7C",
"4X c #8C8B80",
"5X c #4D507D",
"6X c #989781",
"7X c #6B6C7E",
"8X c #3E427C",
"9X c #BFBC83",
"0X c #67687E",
"qX c #E1DC84",
"wX c #61637E",
"eX c #C7C383",
"rX c #E2DD85",
"tX c #BCB983",
"yX c #494C7D",
"uX c #68697E",
/* pixels */
"  . X o o o o o o o o o o o o o o o o o o o o o o o o o o o o o o o o o o o o o o o o o o o o o o o o o o o o O + @ # $ % & % * ",
"= - ; o o o o o o o o o o o o o o o o o o o o o o o o o o o o o o o o o o o o o o o o o o o o o o o o o o o o : & @ > , < 1 2 3 ",
"= 4 5 o o o o o o o o o o o o o o o o o o o o o o o o o o o o o o o o o o o o o o o o o o o o o o o o o o o o 6 # 7 8 o o o 9 0 ",
"= - 5 o o o o o o o o o o o o o o o o o o o o o o o o o o o o o o o o o o o o o o o o o o o o o o o o o o o o q w e r t o o y u ",
"i p a o o o o o o o o o o o o o o o o o o o o o o o o o o o o o o o o o o o o o o o o o o o o o o o o o o o o s w d f g h j % p ",
"k l z o o o o o o o o o o o o o o o o o o o o o o o o o o o o o o o o o o o o o o o o o o o o o o o o o o o o x @ w # f f 0 c v ",
"b h o o o o o o o o o o o o o o o o o o o o o o o o o o o o o o o o o o o o o o o o o o o o o o o o o o o o o 8 n % m M 3 N B o ",
"h h o o o o o o o o o o o o o o o o o o o o o o o o o o o o o o o o o o o o o o o o o o o o o o o o o o o o o o V C Z o M p A S ",
"k C k c D F o o o o o o o o o o o o o o o o o o o o o o o o o o o o o o o o o o o o o o o o o o o o o o o o o o G 3 H o J K 4 L ",
"P - 4 b I ; o o o o o o t U Y o o o o o o o o o o o o o o o o o o o o o o o o o o o o o o o o o o o o o o o o o T , T o o R u E ",
"W Q x ! o o o o o o o o ~ p ^ o o o o o o o o o o o o o o o o o o o o o o o o o o o o / ( z o o o o o o o o o o o o o o o S ) p ",
"o o o o o o o o o o o _ ` ' ] o o o o o o o o o o o o o o o o o o o o o o o o o o o o [ C { o o o o o o o o o o o o o o o o t + ",
"o o o o o o o o o o t - d 3 } o o o o o o o o o o o o o o o o o o o o o o o o o o o t e | { t  .o o o o o o o o o o o o o o o o ",
"o o o o o o o o o o ..d X.o.o o o o o o o o o o o o o o o o o o o o o o o o o o o o O.+.| o.@.#.8 o o o o o o o o o o o o o o o ",
"o o o o o o o o o $.%.X.&.*.o o o o o o o o o o o o o o o o o o o o o o o o o o o o o =.-.N C 0 ;.o o o o o o o o o o o o o o o ",
"o o o o o o o o o :.' X.>.o o o o o o o o o o o o o o o o o o o o o o o o o o o o o o x 3 -.p ' ,.<.o o o o o o o o o o o o o o ",
"o o o o o o o o o R d X.1.o o o o o o o o o o o o o o o o o o o o o o o o o o o o o o o { -.-.' -.2.o o o o o o o o o o o o o o ",
"o o o o o o o o o 3.X.f 4.o o o o o o o o o o o o o o o o o o o o o o o o o o o o o o o t 5.-.6.6.7.*.o o o o o o o o o o o o o ",
"o o o o o o o o t 4 X.g O.o o o o o o o o o o o o o o o o o o o o o o o o o o o o o o o o 8.+.| d 6.9.o o o o o o o o o o o o o ",
"o o o o o o o o 0.&.X.q.o o o o o o o o o o o o o o o o o o o o o o o o o o o o o o o o o o w.>.d d e.8 o o o o o o o o o o o o ",
"o o o o o o o $.~ d d r.o o o o o o o o o o o o o o o o o o o o o o o o o o o o o o o o o o o t.g X.6.y.o o o o o o o o o o o o ",
"o o o o o o o u.i.d p.a.o o o o o o o o o o o o o o o o o o o o o o o o o o o o o o o o o o o o s.d X.d.o o o o o o o o o o o o ",
"o o o o o o o f.g d 6.v o o o o o o o o o o o o o o o o o o o o o o o o o o o o o o o o o o o o g.g X.g h.o o o o o o o o o o o ",
"o o o o o o o j.-.6.&.k.o o o o o o o o o o o o o u.v l.z.o o o o o o o o o o o o o o o o o o o o x.X.p.c.o o o o o o o o o o o ",
"o o o o o o o v.| # | v o o o o o o o o o o o o $.  &.' @ ~ c.O.o o o o o o o o o o o o o o o o o b.p.X.o.o o o o o o o o o o o ",
"o o o o o o o D &.g &.v o o o o o o o o o o o o Y % p.d X.d ' i.a.o o o o o o o o o o o o o o o o t w X.i.o o o o o o o o o o o ",
"o o o o o o S n.' - | k.o o o o o o o o o o o o k.' p.p.p.d d p.# v.! o o o o o o o o o o o o o o o l X.- o o o o o o o o o o o ",
"o o o o o o h.i.| - | v o o o o o o o o o o o O n.p.p.% m.M.&.p.f 0 N.o o o o o o o o o o o o o o o B.X.-.O o o o o o o o o o o ",
"o o o o o o h.E | - &.v o o o o o o o o o o o V.' d ' C.o 8.Z.' p.d A.O o o o o o o o o o o o o o o ~ X.f m o o o o o o o o o o ",
"o o o o o o h.i.' 4 ' m.o o o o o o o o o o o S.d d D.S o o g.F.w X.d G.$.o o o o o o o o o o o o o H.X.p.Z o o o o o o o o o o ",
"o o o o o o S i.' - | v o o o o o o o o o o < 6.X.` J.o o o o K.l.' X.p.C.o o o o o o o o o o o o o F.X.p.Z o o o o o o o o o o ",
"o o o o o o h.E &.N | v o o o o o o o o o o n.X.p.1 o o o o o o o L.6.X.6.y o o o o o o o o o o o o Z.X.6.b.o o o o o o o o o o ",
"o o o o o o t b ' 4 ' ( o o o o o o o o o P.f X.3 o o o o o o o o o I.p.X.` V.o o o o o o o o o o K.U.X.&.0.o o o o o o o o o o ",
"o o o o o o $.B.&.C | Y.o o o o o o o o g.7.X.p.r o o o o o o o o o 8 q.d d . T.o o o o o o o o o R.- X.w a o o o o o o o o o o ",
"o o o o o o o E.| p | @.o o o o o o o o P d X.b  .o o o o o o o o o o W.N X.p.I o o o o o o o o o 0.' X.. W o o o o o o o o o o ",
"o o o o o o o q ' ` | V o o o o o o o Q.&.X.&.W.o o o o o o o o o o o o !.&.d ` ~.o o o o o o o o M p.X.^.o o o o o o o o o o o ",
"o o o o o o o /.-.| 6.+.O.o o o o o 8.(.d d ^ o o o o o o o o o o o o o } (.d p.,.z.o o o o o o o { d d 9 o o o o o o o o o o o ",
"o o o o o o o ).@ &.6.c _.o o o o K.  p.X.C `.o o o o o o o o o o o o o o E.6.6.# '.o o o o o o o o.X.f F o o o o o o o o o o o ",
"o o o o o o o _.c 6.&.@ ].o o o o ~.g d p.P 8 o o o o o o o o o o o o o o [.| 0 | %.{.o o o o o o %.X.w } o o o o o o o o o o o ",
"o o o o o o o O.}.6.6.0 |.o o o _.U.f d @ *.o o o o o o o o o o o o o o o * &.l N #  Xo o o o o _.-.X..Xo o o o o o o o o o o o ",
"o o o o o o o o XX&.6.u b.o o o =.# f 6.oX$.o o o o o o o o o o o o o o o k.| i.oX| h OXo o o o +Xd X.> o o o o o o o o o o o o ",
"o o o o o o o o > 6.f g b.o o @X& | &.` #Xo o o o o o o o o o o o o o o o v | ,.s p ` $Xo o o o %XX.p.Z o o o o o o o o o o o o ",
"o o o o o o o o v 6.p.' &Xo $.M.&.-.&.c } o o o o o o o o o o o o o o o o a.&.E _.i | i o o o o b X.# _.o o o o o o o o o o o o ",
"o o o o o o o o &X# f &.6 o *Xg | | u R o o o o o o o o o o o o o o o o o ..' (.z =Xg g _ o o h.p X.3 o o o o o o o o o o o o o ",
"o o o o o o o o -XC p.f Z._.U.f &.' =  .o o o o o o o o o o o o o o o o o ;Xw p P.t }.| Z.o o :X| X.B.o o o o o o o o o o o o o ",
"o o o o o o o o u.i.f &.@ &Xp p.6.2 >Xo o o o o o o o o o o o o o o o o o ,Xp w Z o y # N X o <Xf d 1Xo o o o o o o o o o o o o ",
"o o o o o o o o 8 2X&.| -.3Xf d w 4Xo o o o o o o o o o o o o o o o o o o / l | 4Xo / >.| 5XJ i.d p.=.o o o o o o o o o o o o o ",
"o o o o o o o o o 7 | # &.' d p.Z.8 o o o o o o o o o o o o o o o o o o o OXe.| ] o o !.-.@ *Xw d ' 6Xo o o o o o o o o o o o o ",
"o o o o o o o o o $X-.0 ' X.X.g P.o o o o o o o o o o o o o o o o o o o o o G.| E.o o `.% -.k f d N J.o o o o o o o o o o o o o ",
"o o o o o o o o o ).@ ' w X.d 7Xo o o o o o o o o o o o o o o o o o o o o o 2.' e h.o o 8Xp.p.p.p.b S o o o o o o o o o o o o o ",
"o o o o o o o o o o Z.&.&.d 2 u.o o o o o o o o o o o o o o o o o o o o o o L.w w 4XK.9Xl d X.&.&.5Xo o o o o o o o o o o o o o ",
"o o o o o o o o o o H $ &.` s o o o o o o o o o o o o o o o o o o o o o o o g.+.&.u e 4 &.6.d f -.+ o o o o o o o o o o o o o o ",
"o o o o o o o o o o o < 0X@Xo o o o o o o o o o o o o o o o o o o o o o o o o 4.E -.&.| (.7 ` &.A.qXo o o o o o o o o o o o o o ",
"o o o o o o o o o o o o o o o o o o o o o o o o o o o o o o o o o o o o o o o o >Xv r.7 x o Q.wXeXo o o o o o o o o u., Z |.w.8 ",
"o o o o o o o o o o o o o o o o o o o o o o o o o o o o o o o o o o o o o o o o o o o o o o o o o o o o o o o o Y E.i.$ - - 3 l.",
"6XX o o o o o o o o o o o o o o o o o o o o o o o o o o o o o o o o o o o o o o o o o o o o o o o o o o o o o o [ # 3 8XG.2 # %X",
"A.r.o o o o o o o o o o o o o o o o o o o o o o o o o o o o o o o o o o o o o o o o o o o o o o o o o o o o o rXA.u E e.7.w c Z ",
"$ x.o o o o o o o o o o o o o o o o o o o o o o o o o o o o o o o o o o o o o o o o o o o o o o o o o o o o o v 0 N f | 7.<Xx o ",
"$ x.o o o o o o o o o o o o o o o o o o o o o o o o o o o o o o o o o o o o o o o o o o o o o o o o o o o o o   N ( I & $ ;.K.o ",
"$ = o o o o o o o o o o o o o o o o o o o o o o o o o o o o o o o o o o o o o o o o o o o o o o o o o o o o o = 4 tX! N.3 @ *XK.",
"@ yXo o o o o o o o o o o o o o o o o o o o o o o o o o o o o o o o o o o o o o o o o o o o o o o o o o o o o P u y o 8 @X3 7.~.",
"& }.x o o o o o o o o o o o o o o o o o o o o o o o o o o o o o o o o o o o o o o o o o o o o o o o o o o o o b.i M o o 8 l.@ (.",
"p.d 6.-.V o o o o o o o o o o o o o o o o o o o o o o o o o o o o o o o o o o o o o o o o o o o o o o o o o o {.uX: o o o $.M - ",
"e u w 0 [ o o o o o o o o o o o o o o o o o o o o o o o o o o o o o o o o o o o o o o o o o o o o o o o o o o u.0.Q o o o o OXj."
};
