/* XPM */
static char *cddbb4cee69c4869c086d491774152a7tHaKCoEk6Ehk6oZa[] = {
/* columns rows colors chars-per-pixel */
"64 32 3 1 ",
"  c white",
". c black",
"X c red",
/* pixels */
"                                                                ",
"               .............                                    ",
"               .XXXXXXXXXXX.                                    ",
"  ..........   .XXXXXXXXXXX.                                    ",
"  .XXXXXXXX.   .XXXXXXXXXXX..... .......                        ",
"  .XXXXXXXX.   .XXXXXXXXXXX.XXX. .XXXXX.                        ",
"  .XXXXXXXX.   .........XX..XXX. .XXXXX.                        ",
"  .XXXXXXXX.      .XXXXXXXXXXXX. .XXXXX.                        ",
"  .XXXXXXXX.      .XXXXXXXXXXXX. .XXXXX......                   ",
"  .XXXXXXXX........XXX..XXXXXXX. .XXXXXXXXXX.                   ",
"  .XXXXXXXX.XXXX..XXXXX.XXXXXXX. ....XXXXXXX.                   ",
"  .XXXXXXXX.XXXX..XXXXX.XXXXXXX.  .XXXXXXXXX.                   ",
"  .....XXX..XXXX..XXXXX.XXXXXXX.  .XXXXXXXXX.                   ",
"      .XXXXXXXXXXXXXXXX.XXXXXXX.  .XXXXXXXXX.                   ",
"      .XXXXXXXXXXXXXXXX...XXX.......XXX...XX.                   ",
"      .XXXXXXXXX..XXXXX.XXXXXXX.XXXXXXXXX.XX.                   ",
"      .XXXXXXXXX..XXXXX.XXXXXXX.XXXXXXXXX.XX.                   ",
"      .XXXXXXXXX..XXXXX.XXXXXXX.XXXXXXXXX....                   ",
"   .....XX..XXXXXXXXXXX.XXXXXXX.XXXXXXXXX.                      ",
"   .XXXXXXX.XXXXXXXXXXX.XXXXXXX.XXXXXXXXX.                      ",
"   .XXXXXXX.XXXX..XXXXX.XXXXXXX.XXXXXXXXX.                      ",
"   .XXXXXXX.......XXXXX....XX...XXXXXXXXX.                      ",
"   .XXXXXXX.     .XXXXX.XXXXXXX.XXXXXXXXX.                      ",
"   .XXXXXXX.     .XXXXX.XXXXXXX.XXXXXXXXX.                      ",
"   .XXXXXXX.     .XXXXXXXXXXXXXXXXXXXXXXX.                      ",
"   .XXXXXXX.     .XXXXXXXXXXXXXXX.........                      ",
"   .........     .XXXXX.XXXXXXXXXXX.                            ",
"                 .......XXXXXXXXXXX.                            ",
"                   .XXXXXXXXXXXXXXX.                            ",
"                   .XXXXXXXXXXXXXXX.                            ",
"                   .XXXXXXXXXXXXXXX.                            ",
"                   .................                            "
};
